<svg width="37" height="38" xmlns="http://www.w3.org/2000/svg"><defs><linearGradient x1="50%" y1="0%" x2="50%" y2="100%" id="a"><stop stop-color="#FF442C" offset="0%"/><stop stop-color="#FF9C15" offset="100%"/></linearGradient></defs><g fill="none" fill-rule="evenodd"><path d="M18.32 36.64c10.117 0 18.32-8.203 18.32-18.32C36.64 8.202 28.436 0 18.32 0 8.202 0 0 8.202 0 18.32c0 10.117 8.202 18.32 18.32 18.32z" fill="url(#a)" transform="translate(0 .64)"/><path d="m28.115 17.553-7.798 7.798c-.649.649-1.754.186-1.754-.726v-5.743a6.177 6.177 0 0 0-6.166 6.167 2.053 2.053 0 0 1-2.056 2.056 2.053 2.053 0 0 1-2.055-2.056c0-5.665 4.612-10.278 10.277-10.278V9.03c0-.912 1.105-1.375 1.754-.726l7.798 7.798a1.02 1.02 0 0 1 0 1.452z" fill="#FFF" fill-rule="nonzero"/></g></svg>