<svg width="16" height="16" xmlns="http://www.w3.org/2000/svg"><defs><linearGradient x1="50%" y1="0%" x2="50%" y2="100%" id="a"><stop stop-color="#FF442C" offset="0%"/><stop stop-color="#FF9C15" offset="100%"/></linearGradient></defs><g fill="none" fill-rule="evenodd"><path d="m8.687.495 1.936 1.857h2.174c1.12 0 2.036.868 2.113 1.968l.005.15v7.887a2.118 2.118 0 0 1-1.966 2.113l-.152.005H2.118a2.118 2.118 0 0 1-2.113-1.967L0 12.357V4.471c0-1.12.868-2.035 1.967-2.113l.151-.005 2.174-.001L6.228.495a1.776 1.776 0 0 1 2.46 0zm-1.23.806-1.08 1.051H8.54L7.458 1.301z" fill="url(#a)" transform="translate(.542 .762)"/><path d="M4.3 6.698h7.4c.42 0 .63.209.63.628 0 .419-.21.628-.63.628H4.3c-.42 0-.63-.21-.63-.628 0-.419.21-.628.63-.628zm0 3.7h4.189c.419 0 .628.21.628.629 0 .419-.21.628-.628.628h-4.19c-.419 0-.628-.21-.628-.628 0-.42.21-.629.628-.629z" fill="#FFF" fill-rule="nonzero"/></g></svg>