<svg width="238" height="127" xmlns="http://www.w3.org/2000/svg"><defs><linearGradient x1="50%" y1="0%" x2="50%" y2="100%" id="a"><stop stop-color="#FD2D5F" offset="0%"/><stop stop-color="#FF639B" offset="100%"/></linearGradient><linearGradient x1="50%" y1="0%" x2="50%" y2="100%" id="b"><stop stop-color="#A561FF" offset="0%"/><stop stop-color="#6C32FF" offset="100%"/></linearGradient><linearGradient x1="50%" y1="0%" x2="50%" y2="100%" id="c"><stop stop-color="#FF442C" offset="0%"/><stop stop-color="#FF9C15" offset="100%"/></linearGradient><linearGradient x1="50%" y1="0%" x2="50%" y2="100%" id="d"><stop stop-color="#FF442C" offset="0%"/><stop stop-color="#FF9C15" offset="100%"/></linearGradient><linearGradient x1="50%" y1="0%" x2="50%" y2="100%" id="e"><stop stop-color="#FF442C" offset="0%"/><stop stop-color="#FF9C15" offset="100%"/></linearGradient><linearGradient x1="50%" y1="0%" x2="50%" y2="100%" id="f"><stop stop-color="#FD2D5F" offset="0%"/><stop stop-color="#FF639B" offset="100%"/></linearGradient></defs><g fill="none" fill-rule="evenodd"><path d="M157.234 1.612c.401 0 .726.325.726.726v3.74l3.742.002a.726.726 0 1 1 0 1.452h-3.742v3.742a.726.726 0 0 1-1.452 0l-.001-3.742h-3.74a.726.726 0 0 1 0-1.452l3.74-.001v-3.74c0-.402.326-.727.727-.727zm50 76.5c.401 0 .726.325.726.726v3.74l3.742.002a.726.726 0 1 1 0 1.452h-3.742v3.742a.726.726 0 0 1-1.452 0l-.001-3.742h-3.74a.726.726 0 0 1 0-1.452l3.74-.001v-3.74c0-.402.326-.727.727-.727z" fill="#D6D5D5"/><path d="M108.128 8a4 4 0 1 0 0-8 4 4 0 0 0 0 8z" fill="url(#a)"/><circle fill="url(#b)" fill-rule="nonzero" cx="179.234" cy="52.806" r="4"/><path d="M44.505 96.5a4 4 0 1 0 0-8 4 4 0 0 0 0 8z" fill="url(#c)"/><path d="M51.902 32.439c.391.09.635.48.545.871l-.842 3.645 3.646.842a.726.726 0 1 1-.327 1.416l-3.646-.842-.841 3.646a.726.726 0 1 1-1.416-.327l.841-3.646-3.645-.841a.726.726 0 1 1 .327-1.416l3.645.84.842-3.644c.09-.39.48-.634.871-.544z" fill="#D6D5D5"/><g transform="translate(0 117.136)" fill="#FFF"><rect x="39.009" width="54" height="1" rx=".25"/><rect x="167.234" width="47" height="1" rx=".25"/><rect x="48.844" y="8.624" width="10" height="1" rx=".25"/><rect y="8.124" width="30" height="1" rx=".25"/><rect x="22.991" y=".5" width="10" height="1" rx=".25"/><rect x="227.531" y="8.5" width="10" height="1" rx=".25"/><rect x="226.116" y=".5" width="6" height="1" rx=".25"/></g><path d="M30.34 22.909a4.428 4.428 0 0 1-3.644-1.904l-9.74-14.052a4.428 4.428 0 1 1 7.279-5.047l9.74 14.052a4.428 4.428 0 0 1-3.635 6.95zm14.1-.425a4.43 4.43 0 0 1-3.418-7.243L51.888 2.039a4.43 4.43 0 0 1 6.234-.607 4.427 4.427 0 0 1 .606 6.234L47.863 20.872a4.421 4.421 0 0 1-3.422 1.612z" fill="url(#d)" transform="translate(84.11 31.818)"/><path d="M64.416 76h-53.52C4.878 76 0 71.121 0 65.105V24.104c0-6.017 4.879-10.895 10.895-10.895h53.521c6.017 0 10.896 4.878 10.896 10.895v41.005c0 6.012-4.88 10.891-10.896 10.891z" fill="url(#e)" transform="translate(84.11 31.818)"/><path d="m50.311 35.677-13.149-7.593c-3.426-1.979-7.513-1.979-10.94 0-3.426 1.979-5.467 5.52-5.467 9.474V52.74c0 3.954 2.045 7.496 5.468 9.475a10.951 10.951 0 0 0 5.472 1.478c1.903 0 3.794-.513 5.467-1.478l13.15-7.593c3.421-1.98 5.467-5.52 5.467-9.474 0-3.95-2.046-7.491-5.468-9.47z" fill="url(#f)" transform="translate(84.11 31.818)"/><path d="M116.18 90.233a6.067 6.067 0 0 1-3.05-.828 6.033 6.033 0 0 1-3.05-5.286V69.815a6.047 6.047 0 0 1 3.05-5.286 6.04 6.04 0 0 1 6.101 0l12.388 7.154a6.033 6.033 0 0 1 3.05 5.286 6.053 6.053 0 0 1-3.05 5.286L119.23 89.41a6.095 6.095 0 0 1-3.05.823z" fill="#FFF" fill-rule="nonzero"/></g></svg>