<svg width="15px" height="15px" viewBox="0 0 15 15" version="1.1" xmlns="http://www.w3.org/2000/svg" xmlns:xlink="http://www.w3.org/1999/xlink">
    <title>icon_pitch on_</title>
    <g id="页面-1" stroke="none" stroke-width="1" fill="none" fill-rule="evenodd">
        <g id="登录页面备份-2" transform="translate(-781.000000, -603.000000)">
            <g id="icon_pitch-on_" transform="translate(781.000000, 603.000000)">
                <path d="M15,7.59259259 C15,3.35777778 11.6422222,0 7.40740741,0 C3.35777778,0 0,3.35777778 0,7.59259259 C0,11.6422222 3.35777778,15 7.40740741,15 C11.6422222,15 15,11.6422222 15,7.59259259 Z" id="Fill-" fill="#007AFF"></path>
                <path d="M3.68432405,7.80376708 C3.56223658,7.67809065 3.54764463,7.46201231 3.66159303,7.30779694 L3.70256744,7.25234303 C3.81210092,7.10410271 4.01677419,7.07226809 4.1651787,7.18540126 L5.79192238,8.42551632 C5.93788205,8.53678572 6.16182063,8.53947379 6.30009748,8.42489616 L10.8689433,4.63910322 C11.003641,4.52749132 11.2143362,4.53671627 11.3521373,4.67207794 L11.3111629,4.6318289 C11.4433259,4.76165224 11.4456131,4.96953125 11.3143768,5.09799425 L6.29213306,10.0141089 C6.16174505,10.1417415 5.9575707,10.1438395 5.83498575,10.017651 L3.68432405,7.80376708 Z" id="Fill-" fill="#FFFFFF"></path>
            </g>
        </g>
    </g>
</svg>
