<svg width="32" height="32" viewBox="0 0 32 32" fill="none" xmlns="http://www.w3.org/2000/svg">
<rect width="32" height="32" rx="16" fill="black" fill-opacity="0.25"/>
<path fill-rule="evenodd" clip-rule="evenodd" d="M8.5 16C8.5 16.3978 8.65804 16.7794 8.93934 17.0607C9.22064 17.342 9.60218 17.5 10 17.5C10.3978 17.5 10.7794 17.342 11.0607 17.0607C11.342 16.7794 11.5 16.3978 11.5 16C11.5 15.6022 11.342 15.2206 11.0607 14.9393C10.7794 14.658 10.3978 14.5 10 14.5C9.60218 14.5 9.22064 14.658 8.93934 14.9393C8.65804 15.2206 8.5 15.6022 8.5 16ZM14.5 16C14.5 16.3978 14.658 16.7794 14.9393 17.0607C15.2206 17.342 15.6022 17.5 16 17.5C16.3978 17.5 16.7794 17.342 17.0607 17.0607C17.342 16.7794 17.5 16.3978 17.5 16C17.5 15.6022 17.342 15.2206 17.0607 14.9393C16.7794 14.658 16.3978 14.5 16 14.5C15.6022 14.5 15.2206 14.658 14.9393 14.9393C14.658 15.2206 14.5 15.6022 14.5 16ZM20.9393 17.0607C20.658 16.7794 20.5 16.3978 20.5 16C20.5 15.6022 20.658 15.2206 20.9393 14.9393C21.2206 14.658 21.6022 14.5 22 14.5C22.3978 14.5 22.7794 14.658 23.0607 14.9393C23.342 15.2206 23.5 15.6022 23.5 16C23.5 16.3978 23.342 16.7794 23.0607 17.0607C22.7794 17.342 22.3978 17.5 22 17.5C21.6022 17.5 21.2206 17.342 20.9393 17.0607Z" fill="white"/>
</svg>
