<svg width="24" height="24" viewBox="0 0 24 24" fill="none" xmlns="http://www.w3.org/2000/svg">
<path d="M21.2196 18.9187C24.9644 13.9029 23.9341 6.80109 18.9183 3.0563C13.9025 -0.688483 6.80071 0.341847 3.05592 5.35761C-0.688861 10.3734 0.34147 17.4752 5.35723 21.22C10.373 24.9648 17.4748 23.9344 21.2196 18.9187Z" fill="#FFD05D"/>
<path d="M18.0129 2.43346C19.4059 4.58714 20.0274 7.14962 19.7757 9.70218C19.524 12.2548 18.414 14.6465 16.6272 16.4866C14.8403 18.3268 12.4822 19.5065 9.93811 19.833C7.39403 20.1596 4.81441 19.6136 2.62074 18.2844C3.54642 19.7156 4.78293 20.9195 6.23822 21.8067C7.69352 22.6939 9.33013 23.2415 11.0263 23.4088C12.7225 23.576 14.4346 23.3586 16.0351 22.7728C17.6357 22.1869 19.0835 21.2476 20.2709 20.0248C21.4582 18.8021 22.3546 17.3273 22.8932 15.7102C23.4318 14.0932 23.5988 12.3755 23.3819 10.6849C23.1649 8.99439 22.5694 7.37454 21.6399 5.94593C20.7103 4.51731 19.4706 3.31671 18.0129 2.43346Z" fill="#FDC453"/>
<path d="M2.35197 13.3901C2.3392 11.1923 3.01502 9.04566 4.28456 7.25154C5.55411 5.45743 7.35363 4.10593 9.4305 3.38677C11.5074 2.66761 13.7573 2.61691 15.8645 3.24177C17.9717 3.86664 19.8302 5.1357 21.1793 6.8708C20.4543 5.62526 19.4811 4.54193 18.3201 3.68798C17.1591 2.83403 15.8351 2.22767 14.4301 1.90648C13.0252 1.5853 11.5692 1.55613 10.1525 1.82081C8.73578 2.08548 7.38855 2.63834 6.19431 3.44512C5.00008 4.25189 3.9843 5.29538 3.20994 6.51089C2.43559 7.72641 1.91916 9.08803 1.6927 10.5113C1.46624 11.9346 1.53457 13.3893 1.89344 14.7851C2.25231 16.1809 2.89406 17.4882 3.77893 18.6257C2.851 17.0365 2.35879 15.2305 2.35197 13.3901Z" fill="#FFD77F"/>
<path d="M7.33325 14.4861C7.47508 15.6682 8.04687 16.7569 8.93968 17.5445C9.83248 18.3322 10.9839 18.7639 12.1745 18.7573C13.365 18.7507 14.5116 18.3063 15.3956 17.5088C16.2796 16.7113 16.8393 15.6164 16.9681 14.4328L7.33325 14.4861Z" fill="#695342"/>
<path d="M8.8395 17.4525C9.72421 18.2804 10.8871 18.7467 12.0987 18.7594C13.3103 18.7721 14.4826 18.3302 15.3845 17.521L15.3404 17.4175C12.0921 15.8575 8.8831 17.43 8.8395 17.4525Z" fill="#F06669"/>
<path d="M10.555 8.84926C10.5549 8.84391 10.5541 8.8386 10.5528 8.83343C10.5478 7.78538 9.77762 6.83218 8.64725 6.83781C7.74304 6.84294 7.22201 7.49544 7.04557 8.10602C6.86376 7.49893 6.33516 6.85166 5.43095 6.8568C4.30012 6.85926 3.54163 7.82416 3.54662 8.87221C3.54816 8.87734 3.54894 8.88267 3.54892 8.88803C3.54489 9.11647 3.5626 11.4328 7.07543 13.3019C10.5708 11.397 10.5641 9.07902 10.555 8.84926Z" fill="#E62728"/>
<path d="M20.6881 8.79467C20.6881 8.79467 20.6867 8.78517 20.6858 8.77884C20.681 7.73238 19.9109 6.77917 18.7816 6.79272C17.8774 6.79785 17.3564 7.45035 17.1797 8.05935C16.9979 7.45226 16.4693 6.80499 15.5651 6.81012C14.4343 6.81259 13.676 7.77907 13.6824 8.8253C13.6824 8.8253 13.684 8.83638 13.6849 8.84271C13.6806 9.06957 13.6986 11.3875 17.2114 13.2566C20.702 11.3411 20.6953 9.02308 20.6881 8.79467Z" fill="#E62728"/>
</svg>
