<svg width="24" height="24" viewBox="0 0 24 24" fill="none" xmlns="http://www.w3.org/2000/svg">
<path d="M4.91917 22.1749V9.86436C4.91917 9.48558 4.41413 9.16992 3.84595 9.16992H2.14141C1.25757 9.16992 0.5 9.9275 0.5 10.8113L0.5 21.1648C0.5 22.1118 1.19444 22.8694 2.14141 22.8694H3.84595C4.41413 22.8694 4.91917 22.5537 4.91917 22.1749Z" fill="#4BC310"/>
<path d="M21.2067 8.72939H16.0931C15.7143 8.66626 15.588 8.28747 15.5249 8.09808V3.48951C15.5249 2.22689 14.5148 1.2168 13.2522 1.2168C12.1158 1.2168 11.1689 2.10063 10.9795 3.17386C10.285 7.5299 7.63353 8.98192 5.929 9.42383C5.99213 9.61323 5.99213 9.73949 5.99213 9.86575L5.99213 22.1132C5.99213 22.3657 5.929 22.6182 5.80273 22.8707H18.1764C19.3759 22.6182 20.1966 22.1763 20.7648 20.9768L23.3532 11.8859C23.8582 10.2445 23.0375 8.66626 21.2067 8.72939Z" fill="#FDC453"/>
</svg>
