<svg width="24" height="24" viewBox="0 0 24 24" fill="none" xmlns="http://www.w3.org/2000/svg">
<path d="M23.0711 9.53743C24.4676 15.6941 20.6088 21.8171 14.4521 23.2136C8.2955 24.6102 2.17245 20.7513 0.775922 14.5947C-0.620607 8.43807 3.23822 2.31503 9.39485 0.9185C15.5515 -0.478029 21.6745 3.38079 23.0711 9.53743Z" fill="#FFD05D"/>
<path d="M19.5663 9.4206C19.7572 6.84054 19.0674 4.27201 17.6096 2.13477C19.1008 2.98961 20.3801 4.1697 21.3522 5.58726C22.3244 7.00481 22.9644 8.62333 23.2246 10.3224C23.4848 12.0215 23.3585 13.7573 22.8552 15.4009C22.3518 17.0444 21.4843 18.5532 20.3173 19.8152C19.1503 21.0772 17.7137 22.0597 16.1144 22.6898C14.5152 23.3198 12.7945 23.5811 11.0803 23.4543C9.36609 23.3274 7.70259 22.8157 6.2135 21.9571C4.72441 21.0985 3.44808 19.9152 2.47949 18.4953C4.72398 19.7819 7.33851 20.2692 9.8958 19.8776C12.4531 19.4859 14.8019 18.2385 16.5585 16.3391C18.315 14.4397 19.3754 12.0007 19.5663 9.4206Z" fill="#FDC453"/>
<path d="M2.08739 13.5674C2.0215 11.3521 2.65079 9.17171 3.88696 7.3322C5.12314 5.4927 6.90417 4.08635 8.9802 3.31045C11.0562 2.53455 13.3231 2.42804 15.4627 3.00586C17.6023 3.58367 19.5074 4.81683 20.9106 6.53231C20.1487 5.29468 19.1407 4.22673 17.9491 3.39465C16.7575 2.56256 15.4078 1.98407 13.9835 1.69505C12.5591 1.40603 11.0906 1.41263 9.66895 1.71443C8.24728 2.01624 6.90274 2.60682 5.71869 3.44958C4.53463 4.29233 3.53629 5.3693 2.78554 6.61372C2.03478 7.85815 1.54762 9.24351 1.35424 10.6839C1.16086 12.1244 1.26537 13.5892 1.66133 14.9875C2.05728 16.3859 2.73624 17.6881 3.65609 18.8133C2.68119 17.2329 2.14011 15.4235 2.08739 13.5674Z" fill="#FFD77F"/>
<path d="M8.47367 9.39585C8.49758 10.1793 8.13634 10.8253 7.67471 10.839C7.21309 10.8528 6.81358 10.2289 6.78967 9.44541C6.76576 8.66193 7.12663 8.01444 7.58982 8.00033C8.05302 7.98623 8.45098 8.61044 8.47367 9.39585Z" fill="#303030"/>
<path d="M16.8926 9.14655C16.9165 9.93003 16.5556 10.5775 16.0936 10.5897C15.6316 10.6019 15.2325 9.97959 15.2086 9.1961C15.1847 8.41262 15.5455 7.76513 16.0091 7.7526C16.4726 7.74007 16.8718 8.36235 16.8926 9.14655Z" fill="#303030"/>
<path d="M4.28202 13.3778C4.55819 15.2529 5.51356 16.9612 6.96662 18.1781C8.41968 19.395 10.2692 20.0357 12.1636 19.9785C14.0581 19.9213 15.8655 19.1701 17.2425 17.8677C18.6194 16.5653 19.47 14.8025 19.6325 12.9141L4.28202 13.3778Z" fill="#695342"/>
<path d="M6.79591 18.0503C8.23796 19.3339 10.1084 20.0311 12.0389 20.0043C13.9693 19.9775 15.8197 19.2288 17.2256 17.9056L17.1502 17.7408C11.9196 15.3814 6.86556 18.0146 6.79591 18.0503Z" fill="#F06669"/>
</svg>
