<svg width="32" height="32" viewBox="0 0 32 32" fill="none" xmlns="http://www.w3.org/2000/svg">
<rect width="32" height="32" rx="16" fill="black" fill-opacity="0.25"/>
<path d="M8.16269 8.36459C8.01603 8.5077 8.01315 8.7426 8.15625 8.88927L9.75845 10.5313C9.82607 10.6006 9.86392 10.6936 9.86392 10.7904V17.458C9.86392 17.5144 9.85107 17.57 9.82635 17.6207L9.28477 18.7308C8.74366 19.8399 9.55127 21.1325 10.7854 21.1325H22.3946C22.5995 21.1325 22.7657 20.9664 22.7657 20.7615V20.3904C22.7657 20.1855 22.5995 20.0194 22.3946 20.0194H10.7854C10.374 20.0194 10.1048 19.5885 10.2852 19.2188L10.6663 18.4376C10.7285 18.3102 10.8579 18.2293 10.9997 18.2293H20.2126C20.9541 18.2293 21.6067 17.7403 21.815 17.0287L23.2884 11.9955C23.6013 10.9266 22.7998 9.85684 21.686 9.85684H10.8119C10.7119 9.85684 10.6162 9.81649 10.5463 9.74493L8.95293 8.11191C8.80982 7.96525 8.57492 7.96237 8.42825 8.10547L8.16269 8.36459Z" fill="#FA8C16"/>
<path d="M12.7478 22.7052C12.7478 23.32 12.2495 23.8183 11.6347 23.8183C11.02 23.8183 10.5217 23.32 10.5217 22.7052C10.5217 22.0905 11.02 21.5921 11.6347 21.5921C12.2495 21.5921 12.7478 22.0905 12.7478 22.7052Z" fill="#FA8C16"/>
<path d="M21.6526 22.7052C21.6526 23.32 21.1542 23.8183 20.5395 23.8183C19.9247 23.8183 19.4264 23.32 19.4264 22.7052C19.4264 22.0905 19.9247 21.5921 20.5395 21.5921C21.1542 21.5921 21.6526 22.0905 21.6526 22.7052Z" fill="#FA8C16"/>
</svg>
