<svg width="32" height="32" viewBox="0 0 32 32" fill="none" xmlns="http://www.w3.org/2000/svg">
<rect width="32" height="32" rx="16" fill="black" fill-opacity="0.25"/>
<path d="M13 12H14V13H13V12Z" fill="white"/>
<path d="M12 14H11V15H12V14Z" fill="white"/>
<path d="M12 16H13V17H12V16Z" fill="white"/>
<path d="M21 12H15V13H21V12Z" fill="white"/>
<path d="M13 14H19V15H13V14Z" fill="white"/>
<path d="M20 16H14V17H20V16Z" fill="white"/>
<path fill-rule="evenodd" clip-rule="evenodd" d="M18.2382 21H22C23.1046 21 24 20.1046 24 19V11C24 9.89543 23.1046 9 22 9H10C8.89543 9 8 9.89543 8 11V19C8 20.1046 8.89543 21 10 21H14V20.9916L15.7891 22.7296C15.8851 22.8255 16.0114 22.8735 16.1377 22.8735C16.2656 22.8735 16.3919 22.8239 16.4895 22.728L18.2382 21ZM22 10H10C9.44772 10 9 10.4477 9 11V19C9 19.5523 9.44772 20 10 20H14L14.1695 20.0003H14.1887C14.3198 19.9955 14.4509 20.0435 14.5516 20.1426L16.1345 21.676L17.687 20.1458C17.7736 20.0593 17.8857 20.0105 18 20.0017V20H22C22.5523 20 23 19.5523 23 19V11C23 10.4477 22.5523 10 22 10Z" fill="white"/>
</svg>
