<svg width="24" height="24" viewBox="0 0 24 24" fill="none" xmlns="http://www.w3.org/2000/svg">
<path d="M15.465 22.6824C21.4003 21.092 24.9225 14.9913 23.3322 9.05597C21.7418 3.12067 15.6411 -0.401595 9.70579 1.18876C3.77049 2.77912 0.248224 8.87987 1.83858 14.8152C3.42894 20.7505 9.52968 24.2727 15.465 22.6824Z" fill="#FFD05D"/>
<path d="M18.4951 2.49146C19.8368 4.62531 20.414 7.15164 20.1319 9.65646C19.8499 12.1613 18.7255 14.496 16.9428 16.2781C15.1602 18.0602 12.8251 19.1839 10.3202 19.4652C7.81533 19.7464 5.28918 19.1685 3.15573 17.8261C4.04495 19.2403 5.24129 20.436 6.65594 21.3245C8.07058 22.213 9.66717 22.7714 11.3272 22.9583C12.9872 23.1452 14.668 22.9558 16.2448 22.4041C17.8216 21.8524 19.2538 20.9526 20.4353 19.7716C21.6167 18.5905 22.5169 17.1585 23.069 15.5819C23.6212 14.0053 23.8111 12.3246 23.6247 10.6645C23.4383 9.00441 22.8804 7.40763 21.9924 5.99272C21.1043 4.57781 19.909 3.38111 18.4951 2.49146Z" fill="#FDC453"/>
<path d="M2.96183 13.0212C2.98175 10.8638 3.67669 8.76688 4.94911 7.02462C6.22154 5.28236 8.00759 3.98225 10.0566 3.30679C12.1055 2.63132 14.3146 2.6144 16.3737 3.25839C18.4327 3.90238 20.2385 5.17496 21.5375 6.89752C20.8419 5.66809 19.9016 4.59437 18.7746 3.74271C17.6477 2.89105 16.358 2.27956 14.9854 1.94601C13.6128 1.61247 12.1863 1.56397 10.7942 1.8035C9.40213 2.04304 8.07395 2.56551 6.89175 3.33865C5.70955 4.11179 4.69847 5.11916 3.92098 6.29851C3.1435 7.47785 2.61612 8.80411 2.37146 10.1953C2.12681 11.5865 2.17006 13.0132 2.49855 14.387C2.82704 15.7608 3.43379 17.0527 4.28129 18.1828C3.39609 16.6079 2.94102 14.8277 2.96183 13.0212Z" fill="#FFD77F"/>
<path d="M9.73444 9.57988C9.58663 9.19896 9.32888 8.87059 8.99397 8.63653C8.65906 8.40246 8.26211 8.27327 7.85358 8.26538C7.44506 8.25749 7.04342 8.37126 6.69972 8.59222C6.35602 8.81317 6.08579 9.13134 5.92338 9.50628C5.89309 9.57646 5.88794 9.65495 5.90881 9.72848C5.92968 9.80202 5.97527 9.86611 6.03791 9.90992C6.10055 9.95373 6.1764 9.97459 6.25263 9.96896C6.32886 9.96334 6.40082 9.93159 6.45636 9.87906C7.0794 9.28589 8.06169 8.81473 9.19281 9.93813C9.25412 9.99901 9.33676 10.0336 9.42316 10.0345C9.48931 10.0368 9.55464 10.0193 9.61077 9.98425C9.67516 9.94172 9.72273 9.8781 9.7453 9.8043C9.76787 9.73051 9.76403 9.65115 9.73444 9.57988Z" fill="#303030"/>
<path d="M19.293 9.66748C19.1454 9.28609 18.8876 8.95726 18.5525 8.72286C18.2174 8.48846 17.8201 8.3591 17.4112 8.35125C17.0023 8.3434 16.6004 8.45742 16.2565 8.67879C15.9126 8.90016 15.6424 9.21886 15.4803 9.5943C15.4506 9.66425 15.4458 9.74228 15.4667 9.81535C15.4876 9.88841 15.5329 9.95211 15.5951 9.99578C15.6573 10.0395 15.7326 10.0605 15.8084 10.0553C15.8842 10.0502 15.956 10.0192 16.0117 9.96752C16.6347 9.37435 17.617 8.90319 18.7497 10.0262C18.8037 10.0795 18.8744 10.1128 18.9499 10.1204C19.0254 10.1279 19.1013 10.1094 19.1648 10.0679C19.2291 10.0262 19.277 9.96354 19.3003 9.89056C19.3237 9.81758 19.3211 9.73876 19.293 9.66748Z" fill="#303030"/>
<path d="M7.59264 13.9843L7.58835 13.9683C7.59867 12.8587 6.80506 11.834 5.59763 11.8241C4.63787 11.8148 4.07514 12.4984 3.88824 13.1414C3.70675 12.5026 3.15412 11.7999 2.19597 11.7903C0.990149 11.78 0.175965 12.7887 0.165637 13.8983L0.170364 13.9159C0.162739 14.1568 0.145683 16.6139 3.84521 18.6509C7.56679 16.6844 7.59593 14.2275 7.59264 13.9843Z" fill="#EE5181"/>
<path d="M12.5281 18.1211C12.1769 18.1211 11.8331 18.0197 11.538 17.8293C11.2429 17.6389 11.009 17.3674 10.8643 17.0473C10.7196 16.7273 10.6703 16.3724 10.7222 16.025C10.7741 15.6777 10.9251 15.3527 11.1571 15.089C10.8777 14.7563 10.7269 14.3345 10.732 13.9001C10.7353 13.5058 10.8656 13.123 11.1035 12.8085C11.3415 12.4941 11.6745 12.2647 12.0531 12.1544C12.4317 12.044 12.8358 12.0587 13.2055 12.1961C13.5751 12.3335 13.8906 12.5864 14.1052 12.9172C14.1508 12.987 14.1668 13.0721 14.1497 13.1537C14.1326 13.2354 14.0837 13.3068 14.0139 13.3524C13.9441 13.398 13.859 13.414 13.7774 13.3969C13.6958 13.3798 13.6243 13.3309 13.5787 13.2611C13.4839 13.1152 13.3587 12.9915 13.2117 12.8986C13.0646 12.8056 12.8992 12.7456 12.7267 12.7227C12.5543 12.6997 12.3789 12.7144 12.2127 12.7656C12.0464 12.8169 11.8933 12.9035 11.7637 13.0196C11.6341 13.1357 11.5312 13.2784 11.462 13.438C11.3928 13.5977 11.359 13.7704 11.3629 13.9443C11.3668 14.1182 11.4083 14.2892 11.4845 14.4456C11.5608 14.602 11.6699 14.74 11.8046 14.8501C11.841 14.88 11.8702 14.9177 11.8902 14.9603C11.9101 15.003 11.9202 15.0495 11.9198 15.0966C11.9194 15.1437 11.9085 15.1901 11.8878 15.2324C11.8671 15.2747 11.8373 15.3118 11.8004 15.3411C11.6634 15.4482 11.5513 15.5837 11.4717 15.7383C11.3921 15.8928 11.3469 16.0628 11.3391 16.2365C11.3313 16.4101 11.3612 16.5834 11.4268 16.7445C11.4923 16.9055 11.5919 17.0505 11.7187 17.1694C11.8455 17.2883 11.9966 17.3784 12.1615 17.4334C12.3264 17.4885 12.5013 17.5072 12.6741 17.4883C12.8469 17.4694 13.0136 17.4134 13.1627 17.324C13.3118 17.2346 13.4399 17.114 13.538 16.9705C13.5872 16.9063 13.6592 16.8635 13.7392 16.8508C13.8191 16.8382 13.9008 16.8568 13.9674 16.9028C14.034 16.9487 14.0804 17.0185 14.097 17.0977C14.1136 17.1769 14.0992 17.2594 14.0566 17.3282C13.8867 17.5759 13.6583 17.7778 13.3917 17.9161C13.125 18.0544 12.8284 18.1248 12.5281 18.1211Z" fill="#5E4939"/>
</svg>
