<svg width="32" height="32" viewBox="0 0 32 32" fill="none" xmlns="http://www.w3.org/2000/svg">
<rect width="32" height="32" rx="16" fill="black" fill-opacity="0.25"/>
<path d="M18 8C19.3807 8 20.5 9.11929 20.5 10.5C20.5 11.0632 20.3137 11.583 19.9995 12.001L22 12C22.5523 12 23 12.4477 23 13V16C23 16.5523 22.5523 17 22 17V21.5C22 22.8807 20.8807 24 19.5 24H12.5C11.1193 24 10 22.8807 10 21.5V17C9.44772 17 9 16.5523 9 16V13C9 12.4477 9.44772 12 10 12L12.0005 12.001C11.6863 11.583 11.5 11.0632 11.5 10.5C11.5 9.11929 12.6193 8 14 8C14.8184 8 15.5449 8.39323 16.001 9.00106C16.4551 8.39323 17.1816 8 18 8ZM15.5 17H11V21.5C11 22.3284 11.6716 23 12.5 23H15.5V17ZM21 17H16.5V23H19.5C20.3284 23 21 22.3284 21 21.5V17ZM15.5 13H10V16H15.5V13ZM22 13H16.5V16H22V13ZM18 9C17.1716 9 16.5 9.67157 16.5 10.5V12H18C18.8284 12 19.5 11.3284 19.5 10.5C19.5 9.67157 18.8284 9 18 9ZM14 9C13.1716 9 12.5 9.67157 12.5 10.5C12.5 11.2797 13.0949 11.9204 13.8555 11.9931L14 12H15.5V10.5L15.4931 10.3555C15.4204 9.59489 14.7797 9 14 9Z" fill="white"/>
</svg>
