<svg width="42" height="42" viewBox="0 0 42 42" fill="none" xmlns="http://www.w3.org/2000/svg">
<path d="M36.9308 36.8763C36.9308 38.8755 35.3092 40.4948 33.3113 40.4948H9.82965C7.8317 40.4948 6.2124 38.8752 6.2124 36.8763V4.44898C6.2124 2.44971 7.8317 0.829102 9.82965 0.829102H33.3113C35.3092 0.829102 36.9308 2.44971 36.9308 4.44898V36.8763Z" fill="#F6B246"/>
<path d="M9.83203 0.829102C7.83408 0.829102 6.21216 2.44971 6.21216 4.44898V36.8763C6.21216 38.8755 7.83375 40.4948 9.83203 40.4948H33.3136" fill="#F5A517"/>
<path d="M21.5631 14.0785C28.9255 14.0785 35.1196 10.5672 36.9308 5.80052V4.44898C36.9308 2.44971 35.3092 0.829102 33.3113 0.829102H9.82965C7.8317 0.829102 6.2124 2.44971 6.2124 4.44898V5.8586C8.05121 10.5951 14.2259 14.0785 21.5631 14.0785ZM25.3588 24.5424H17.7841C17.4565 24.5424 17.1424 24.4123 16.9109 24.1807C16.6793 23.9491 16.5492 23.635 16.5492 23.3075C16.5492 22.98 16.6793 22.6659 16.9109 22.4343C17.1424 22.2027 17.4565 22.0726 17.7841 22.0726H25.3588C26.0413 22.0726 26.5936 22.6248 26.5936 23.3073C26.5936 23.9898 26.0413 24.5424 25.3588 24.5424ZM25.3588 28.637H17.7841C17.4565 28.637 17.1424 28.5069 16.9109 28.2753C16.6793 28.0438 16.5492 27.7297 16.5492 27.4021C16.5492 27.0746 16.6793 26.7605 16.9109 26.5289C17.1424 26.2973 17.4565 26.1672 17.7841 26.1672H25.3588C25.521 26.1672 25.6816 26.199 25.8314 26.2611C25.9813 26.3231 26.1174 26.414 26.2321 26.5287C26.3468 26.6434 26.4377 26.7795 26.4997 26.9294C26.5618 27.0792 26.5936 27.2398 26.5936 27.402C26.5937 27.5642 26.5618 27.7248 26.4998 27.8747C26.4378 28.0246 26.3469 28.1608 26.2322 28.2755C26.1175 28.3902 25.9814 28.4812 25.8315 28.5432C25.6817 28.6052 25.521 28.6371 25.3588 28.637Z" fill="#E6246B"/>
<path d="M21.5716 35.3586C21.4095 35.3586 21.2489 35.3267 21.099 35.2646C20.9492 35.2026 20.813 35.1116 20.6983 34.9969C20.5837 34.8822 20.4927 34.746 20.4307 34.5962C20.3687 34.4463 20.3368 34.2857 20.3369 34.1235V23.3656C20.3369 23.2034 20.3688 23.0429 20.4308 22.893C20.4929 22.7432 20.5838 22.6071 20.6985 22.4924C20.8131 22.3777 20.9493 22.2868 21.0991 22.2248C21.2489 22.1627 21.4095 22.1308 21.5716 22.1309C21.7338 22.1307 21.8945 22.1626 22.0443 22.2246C22.1942 22.2866 22.3303 22.3775 22.445 22.4922C22.5597 22.6069 22.6507 22.7431 22.7127 22.8929C22.7747 23.0428 22.8065 23.2034 22.8064 23.3656V34.1235C22.8065 34.2857 22.7746 34.4463 22.7126 34.5962C22.6506 34.746 22.5596 34.8822 22.4449 34.9969C22.3303 35.1116 22.1941 35.2026 22.0443 35.2646C21.8944 35.3267 21.7338 35.3586 21.5716 35.3586Z" fill="#E6246B"/>
<path d="M20.6372 24.3137C20.4233 24.314 20.2131 24.2587 20.027 24.1532C19.841 24.0477 19.6856 23.8956 19.576 23.7119L17.6696 20.5212C17.5018 20.2401 17.4526 19.9039 17.5326 19.5865C17.6127 19.269 17.8155 18.9964 18.0965 18.8284C18.2357 18.7451 18.3899 18.6901 18.5503 18.6665C18.7107 18.6429 18.8742 18.6511 19.0315 18.6908C19.1887 18.7304 19.3366 18.8007 19.4666 18.8976C19.5967 18.9944 19.7063 19.116 19.7893 19.2553L21.6957 22.446C21.8078 22.6333 21.8682 22.8469 21.8707 23.0651C21.8733 23.2833 21.818 23.4983 21.7104 23.6881C21.6028 23.878 21.4468 24.0359 21.2582 24.1458C21.0697 24.2557 20.8554 24.3136 20.6372 24.3137Z" fill="#E6246B"/>
<path d="M22.5085 24.3137C22.2903 24.3135 22.0761 24.2555 21.8876 24.1456C21.6992 24.0357 21.5432 23.8778 21.4356 23.688C21.3281 23.4982 21.2727 23.2832 21.2752 23.0651C21.2777 22.8469 21.338 22.6333 21.45 22.446L23.3564 19.2553C23.4394 19.116 23.549 18.9944 23.6791 18.8976C23.8091 18.8007 23.957 18.7304 24.1142 18.6908C24.2715 18.6511 24.435 18.6429 24.5954 18.6665C24.7558 18.6901 24.91 18.7451 25.0492 18.8284C25.1884 18.9115 25.3099 19.0212 25.4067 19.1513C25.5035 19.2813 25.5737 19.4292 25.6134 19.5864C25.653 19.7436 25.6613 19.9071 25.6377 20.0675C25.6142 20.2279 25.5592 20.3821 25.4761 20.5212L23.5697 23.7119C23.4601 23.8956 23.3047 24.0476 23.1186 24.1531C22.9326 24.2586 22.7224 24.314 22.5085 24.3137Z" fill="#E6246B"/>
</svg>
