<svg width="42" height="42" viewBox="0 0 42 42" fill="none" xmlns="http://www.w3.org/2000/svg">
<path d="M38.0872 8.53166C36.9798 8.58908 35.9626 9.29455 35.5155 10.3117C35.0192 11.4479 35.2612 12.6086 35.9257 13.4412L35.6098 14.766C34.9659 17.4731 32.5501 19.3803 29.7651 19.3803C26.6315 19.3803 24.027 16.9727 23.7768 13.8514L23.4774 10.1026C24.9212 9.14279 25.7743 7.36271 25.36 5.42677C25.0032 3.76564 23.6579 2.42443 21.9926 2.0758C19.1339 1.47287 16.6114 3.6467 16.6114 6.40705C16.6114 7.94923 17.403 9.31095 18.6006 10.1026L18.3012 13.8514C18.051 16.9727 15.4465 19.3803 12.313 19.3803C9.53209 19.3803 7.11217 17.469 6.46823 14.766L6.15241 13.4412C6.81686 12.6127 7.05885 11.4479 6.56256 10.3117C6.11959 9.29455 5.10241 8.58498 3.99088 8.53166C1.96471 8.42912 0.49225 10.201 0.816273 12.0713C0.996742 13.1049 1.6817 13.9252 2.57174 14.319L5.26237 33.3297H36.8034V33.3215L39.494 14.319C40.3881 13.9252 41.0731 13.1049 41.2495 12.0713C41.5858 10.201 40.1133 8.42912 38.0872 8.53166Z" fill="#F9C85D"/>
<path d="M32.0454 39.4287H9.85596C7.27197 39.4287 5.18018 37.3369 5.18018 34.7529H36.7212C36.7212 37.3369 34.6253 39.4287 32.0454 39.4287Z" fill="#83C6EF"/>
<path d="M0.783447 11.5418C0.783447 12.3457 1.10279 13.1166 1.67122 13.6851C2.23966 14.2535 3.01062 14.5729 3.8145 14.5729C4.61839 14.5729 5.38935 14.2535 5.95778 13.6851C6.52621 13.1166 6.84556 12.3457 6.84556 11.5418C6.84556 10.7379 6.52621 9.96695 5.95778 9.39852C5.38935 8.83008 4.61839 8.51074 3.8145 8.51074C3.01062 8.51074 2.23966 8.83008 1.67122 9.39852C1.10279 9.96695 0.783447 10.7379 0.783447 11.5418Z" fill="#F9C85D"/>
<path d="M38.087 8.53164C36.9796 8.58906 35.9624 9.29453 35.5153 10.3117C35.019 11.4479 35.261 12.6086 35.9255 13.4412L35.6097 14.766C34.9657 17.473 32.5499 19.3803 29.7649 19.3803C26.6313 19.3803 24.0269 16.9727 23.7767 13.8514L23.4772 10.1025C24.921 9.14277 25.7741 7.3627 25.3599 5.42676C25.003 3.76562 23.6577 2.42441 21.9925 2.07578C21.6685 2.00605 21.3485 1.98145 21.0327 1.98145V33.3338H36.8032V33.3256L39.4938 14.323C40.388 13.9293 41.073 13.109 41.2493 12.0754C41.5856 10.201 40.1132 8.4291 38.087 8.53164Z" fill="#FFB103"/>
<path d="M35.2529 11.5416C35.2529 12.3444 35.5718 13.1143 36.1395 13.682C36.7072 14.2496 37.4771 14.5686 38.2799 14.5686C39.0827 14.5686 39.8526 14.2496 40.4203 13.682C40.9879 13.1143 41.3068 12.3444 41.3068 11.5416C41.3068 10.7388 40.9879 9.96889 40.4203 9.40122C39.8526 8.83356 39.0827 8.51465 38.2799 8.51465C37.4771 8.51465 36.7072 8.83356 36.1395 9.40122C35.5718 9.96889 35.2529 10.7388 35.2529 11.5416Z" fill="#F9C85D"/>
<path d="M16.562 6.32852C16.562 6.91669 16.6779 7.49911 16.9029 8.04252C17.128 8.58593 17.4579 9.07968 17.8739 9.49558C18.2898 9.91149 18.7835 10.2414 19.3269 10.4665C19.8703 10.6916 20.4527 10.8074 21.0409 10.8074C21.6291 10.8074 22.2115 10.6916 22.7549 10.4665C23.2983 10.2414 23.7921 9.91149 24.208 9.49558C24.6239 9.07968 24.9538 8.58593 25.1789 8.04252C25.404 7.49911 25.5198 6.91669 25.5198 6.32852C25.5198 5.14064 25.0479 4.00141 24.208 3.16145C23.368 2.32149 22.2288 1.84961 21.0409 1.84961C19.853 1.84961 18.7138 2.32149 17.8739 3.16145C17.0339 4.00141 16.562 5.14064 16.562 6.32852Z" fill="#F9C85D"/>
<path d="M20.9507 34.7529V39.4287H32.1562C34.6786 39.4287 36.7212 37.3861 36.7212 34.8637V34.7529H20.9507Z" fill="#429BCF"/>
<path d="M6.00479 9.4541C5.64795 11.3039 4.12217 12.9076 1.93604 13.9043C2.45283 14.3186 3.10088 14.5729 3.81455 14.5729C5.48799 14.5729 6.84561 13.2152 6.84561 11.5418C6.84561 10.7338 6.52158 9.99961 6.00479 9.4541ZM40.4784 9.47871C40.0642 11.3039 38.5138 12.8707 36.3235 13.8387C36.8526 14.2898 37.5294 14.5729 38.28 14.5729C39.9534 14.5729 41.3069 13.2193 41.3069 11.5459C41.3028 10.742 40.987 10.0201 40.4784 9.47871ZM24.1624 3.11719C24.2567 3.38789 24.3101 3.6709 24.3101 3.95801C24.3101 6.06621 21.681 7.77656 18.4407 7.77656C17.8542 7.77656 17.2882 7.71914 16.755 7.6125C17.3087 9.4582 19.019 10.7994 21.0452 10.7994C23.5185 10.7994 25.5241 8.79375 25.5241 6.32051C25.52 5.06543 24.9991 3.9293 24.1624 3.11719Z" fill="#FFB103"/>
<path d="M2.29072 10.2262C2.31334 10.2654 2.35402 10.2936 2.41044 10.3093C2.46686 10.325 2.53792 10.3278 2.61955 10.3176C2.70119 10.3074 2.79181 10.2844 2.88623 10.2499C2.98065 10.2154 3.07702 10.17 3.16985 10.1165C3.26268 10.0629 3.35015 10.0021 3.42725 9.93756C3.50436 9.87305 3.56959 9.80608 3.61923 9.74047C3.66887 9.67487 3.70195 9.61191 3.71657 9.5552C3.73119 9.49849 3.72706 9.44914 3.70444 9.40996C3.68182 9.37077 3.64114 9.34252 3.58471 9.32683C3.52829 9.31113 3.45724 9.3083 3.3756 9.31849C3.29396 9.32868 3.20335 9.35169 3.10893 9.38621C3.01451 9.42073 2.91813 9.46608 2.8253 9.51967C2.73247 9.57327 2.64501 9.63406 2.5679 9.69857C2.4908 9.76308 2.42556 9.83005 2.37592 9.89565C2.32628 9.96126 2.29321 10.0242 2.27859 10.0809C2.26397 10.1376 2.26809 10.187 2.29072 10.2262Z" fill="#F7EAD0"/>
<path d="M38.7664 10.1185C38.8593 10.1721 38.9556 10.2175 39.0501 10.252C39.1445 10.2865 39.2352 10.3096 39.3168 10.3198C39.3985 10.33 39.4695 10.3272 39.526 10.3115C39.5824 10.2958 39.6231 10.2675 39.6457 10.2283C39.6684 10.1891 39.6725 10.1398 39.6579 10.0831C39.6432 10.0263 39.6101 9.96337 39.5605 9.89775C39.5108 9.83214 39.4455 9.76516 39.3684 9.70064C39.2913 9.63612 39.2038 9.57533 39.111 9.52174C39.0181 9.46813 38.9217 9.42276 38.8273 9.38822C38.7329 9.35368 38.6422 9.33065 38.5606 9.32045C38.4789 9.31025 38.4078 9.31308 38.3514 9.32877C38.2949 9.34446 38.2543 9.3727 38.2316 9.41189C38.209 9.45108 38.2049 9.50045 38.2195 9.55717C38.2341 9.61389 38.2672 9.67686 38.3169 9.74248C38.3666 9.80809 38.4318 9.87507 38.509 9.93959C38.5861 10.0041 38.6736 10.0649 38.7664 10.1185Z" fill="#F7EAD0"/>
<path d="M19.2651 3.18672C19.2651 3.30203 19.444 3.41261 19.7625 3.49414C20.0809 3.57568 20.5128 3.62148 20.9632 3.62148C21.4135 3.62148 21.8454 3.57568 22.1639 3.49414C22.4823 3.41261 22.6612 3.30203 22.6612 3.18672C22.6612 3.07141 22.4823 2.96083 22.1639 2.87929C21.8454 2.79776 21.4135 2.75195 20.9632 2.75195C20.5128 2.75195 20.0809 2.79776 19.7625 2.87929C19.444 2.96083 19.2651 3.07141 19.2651 3.18672Z" fill="#F7EAD0"/>
<path d="M22.3944 25.8723H19.8761C19.306 25.8723 18.8384 25.4047 18.8384 24.8346C18.8384 24.2645 19.306 23.7969 19.8761 23.7969H22.3944C22.9646 23.7969 23.4321 24.2645 23.4321 24.8346C23.4321 25.4047 22.9646 25.8723 22.3944 25.8723Z" fill="#DA3329"/>
<path d="M22.3945 23.793H21.041V25.8725H22.3945C22.9646 25.8725 23.4322 25.4049 23.4322 24.8348C23.4322 24.2605 22.9646 23.793 22.3945 23.793Z" fill="#C11B16"/>
</svg>
