<svg width="42" height="42" viewBox="0 0 42 42" fill="none" xmlns="http://www.w3.org/2000/svg">
<g clip-path="url(#clip0_2919_2745)">
<path d="M17.2559 31.6494C17.8081 35.5576 20.1445 38.5313 20.1445 38.5313C20.1445 38.5313 22.481 35.5576 23.0332 31.6494H17.2559Z" fill="#FD6513"/>
<path d="M17.978 31.5645C18.6152 34.2832 20.187 36.2373 20.187 36.2373C20.187 36.2373 21.7163 34.2832 22.396 31.5645H17.978Z" fill="#FD9C13"/>
<path d="M15.854 33.3062L10.2891 40.4854V30.5874L15.854 26.2969V33.3062Z" fill="#F12A3F"/>
<path d="M15.8538 27.9111V33.3062L12.158 38.1065V30.7998L15.8538 27.9111Z" fill="#C92334"/>
<path d="M24.4351 33.3062L30 40.4854V30.5874L24.4351 26.2969V33.3062Z" fill="#F12A3F"/>
<path d="M24.4351 27.9111V33.3062L28.1733 38.1065V30.7998L24.4351 27.9111Z" fill="#C92334"/>
<path d="M16.5334 5.1416C16.6609 4.9292 16.7459 4.75928 16.8733 4.54688C16.7883 4.75928 16.6609 4.9292 16.5334 5.1416ZM14.9192 8.45508C15.1741 7.86035 15.429 7.26563 15.7263 6.71338C15.429 7.26563 15.1741 7.86035 14.9192 8.45508Z" fill="#FDB813"/>
<path d="M17.0435 4.29248C17.2134 4.0376 17.3833 3.74023 17.5532 3.48535C17.3833 3.74023 17.2134 3.99512 17.0435 4.29248Z" fill="#F12A3F"/>
<path d="M20.9092 0.935547C21.3765 1.53027 22.0137 2.42236 22.7358 3.48438C22.0562 2.37988 21.4189 1.53027 20.9092 0.935547ZM22.7783 3.48438C22.9482 3.73926 23.1182 3.99414 23.2881 4.29151C23.0757 3.99414 22.9058 3.73926 22.7783 3.48438Z" fill="#DB2639"/>
<path d="M27.1113 22.2183C27.0264 23.0679 26.8989 23.875 26.7715 24.6397C26.8989 23.875 27.0264 23.0679 27.1113 22.2183ZM14.0698 10.7061L14.3247 9.94141L14.0698 10.7061ZM14.792 29.27L14.5371 28.5054C14.6221 28.8028 14.707 29.0576 14.792 29.27ZM24.605 6.71289C24.8599 7.26514 25.1572 7.85987 25.4121 8.45459C25.1572 7.85987 24.8599 7.26514 24.605 6.71289ZM26.0493 27.7407C25.9644 27.9956 25.8794 28.293 25.7944 28.5479C25.8794 28.2505 25.9644 27.9956 26.0493 27.7407ZM13.5601 24.6397C13.4326 23.875 13.3052 23.0679 13.2202 22.2183C13.3052 23.0679 13.4326 23.875 13.5601 24.6397ZM13.8149 25.9141C13.7725 25.6592 13.6875 25.3618 13.645 25.1069C13.6875 25.3618 13.7725 25.6592 13.8149 25.9141ZM16.5337 5.14112C16.4487 5.31104 16.3213 5.52344 16.2363 5.69336C16.3213 5.52344 16.4487 5.31104 16.5337 5.14112ZM20.9092 0.935547C20.4419 0.340821 20.1445 0.000976562 20.1445 0.000976562C20.1445 0.000976562 19.8472 0.340821 19.3799 0.935547C19.8472 0.340821 20.1445 0.000976562 20.1445 0.000976562C20.1445 0.000976562 20.4419 0.340821 20.9092 0.935547ZM25.4121 8.45459C25.6245 8.92188 25.7944 9.43165 26.0068 9.94141C25.7944 9.43165 25.6245 8.92188 25.4121 8.45459ZM16.2363 5.69336L15.7266 6.71289L16.2363 5.69336ZM14.0698 10.7061C13.3901 12.7876 12.9229 15.124 12.9229 17.5454C12.9229 19.1597 13.0078 20.7315 13.1777 22.2608C13.0078 20.7739 12.9229 19.2022 12.9229 17.5454C12.9229 15.124 13.3901 12.7876 14.0698 10.7061ZM25.9644 9.94141L26.2192 10.7061C26.1768 10.4512 26.0918 10.1963 25.9644 9.94141ZM20.1445 31.6489H15.8965C15.6841 31.2666 15.4717 30.7993 15.2593 30.3745C15.4717 30.8418 15.6841 31.2666 15.8965 31.6489H24.4775C24.6899 31.2666 24.9024 30.7993 25.1148 30.3745C24.9024 30.8418 24.6899 31.2666 24.4775 31.6489H20.1445ZM24.605 6.71289L24.0952 5.69336L24.605 6.71289ZM27.3662 17.5454C27.3662 15.124 26.8989 12.8301 26.2192 10.7061C26.9414 12.7876 27.3662 15.124 27.3662 17.5454ZM24.0952 5.69336L23.458 4.54639C23.6279 4.92871 23.8828 5.31104 24.0952 5.69336ZM14.1548 27.3159C14.0698 27.0186 13.9849 26.7637 13.9424 26.4663C14.0273 26.7637 14.0698 27.0186 14.1548 27.3159ZM13.9424 26.4663C13.8999 26.2964 13.8574 26.1265 13.8149 25.9141C13.8574 26.084 13.8999 26.2964 13.9424 26.4663Z" fill="#FDB813"/>
<path d="M20.1445 31.6489V5.69336H16.2363L15.7266 6.71289C15.4717 7.26514 15.1743 7.85986 14.9194 8.45459C14.707 8.92188 14.5371 9.43164 14.3247 9.94141L14.0698 10.7061C13.3901 12.7876 12.9229 15.124 12.9229 17.5454C12.9229 19.1597 13.0078 20.7315 13.1777 22.2608C13.2627 23.1104 13.3901 23.9175 13.5176 24.6821C13.5601 24.8521 13.5601 24.9795 13.6025 25.1494C13.645 25.4043 13.73 25.7017 13.7725 25.9566C13.8149 26.1265 13.8574 26.2964 13.8999 26.5088C13.9849 26.8062 14.0273 27.1035 14.1123 27.3584C14.1548 27.4859 14.1973 27.6558 14.2397 27.7832C14.3247 28.0381 14.4097 28.3355 14.4946 28.5903L14.7495 29.355C14.877 29.7373 15.0469 30.0772 15.1743 30.417C15.3867 30.8843 15.5991 31.3091 15.8115 31.6914H20.1445V31.6489Z" fill="#FDB813"/>
<path d="M20.1445 5.69336V0.000976562C20.1445 0.000976562 19.8472 0.340821 19.3799 0.935547C18.9126 1.53027 18.2754 2.42236 17.5532 3.48438C17.3833 3.73926 17.2134 3.99414 17.0435 4.29151C17.001 4.37647 16.916 4.46143 16.8735 4.58887C16.7461 4.75879 16.6611 4.97119 16.5337 5.1836C16.4487 5.35352 16.3213 5.56592 16.2363 5.73584H20.1445V5.69336Z" fill="#F12A3F"/>
<path d="M26.3892 26.4668C26.3042 26.7642 26.2617 27.0615 26.1768 27.3164C26.2192 27.019 26.3042 26.7642 26.3892 26.4668ZM26.6865 25.1074C26.6016 25.5747 26.5166 25.9995 26.3892 26.4668C26.4741 25.9995 26.5591 25.5747 26.6865 25.1074Z" fill="#FD9B13"/>
<path d="M26.2617 10.7061L26.0068 9.94141C25.8369 9.43164 25.6245 8.92188 25.4121 8.45459C25.1572 7.85986 24.9023 7.26514 24.605 6.71289L24.0952 5.69336H20.187V31.6489H24.4775C24.6899 31.2666 24.9023 30.7993 25.1147 30.3745C25.3696 29.8223 25.582 29.1851 25.8369 28.5479C25.9219 28.293 26.0068 28.0381 26.0918 27.7407C26.1343 27.6133 26.1768 27.4859 26.2192 27.3159C26.3042 27.0186 26.3892 26.7637 26.4316 26.4663C26.5591 26.0415 26.644 25.5742 26.729 25.1069C26.7715 24.937 26.7715 24.8096 26.814 24.6397C26.9414 23.875 27.0689 23.0679 27.1538 22.2183C27.3237 20.7315 27.4087 19.1597 27.4087 17.5029C27.3662 15.124 26.9414 12.7876 26.2617 10.7061Z" fill="#FD9B13"/>
<path d="M20.1445 5.69385H24.0527L23.4155 4.54688C23.373 4.46192 23.2881 4.37696 23.2456 4.24951C23.0757 3.99463 22.9058 3.69727 22.7358 3.44238C22.0137 2.33789 21.3765 1.48828 20.9092 0.893555C20.4419 0.298828 20.1445 -0.0410156 20.1445 -0.0410156V5.69385Z" fill="#C92334"/>
<path d="M15.3865 30.6729C15.5564 31.0127 15.7263 31.3525 15.8962 31.6499H20.1868V30.6729H15.3865Z" fill="white"/>
<path d="M24.9448 30.6729H20.1445V31.6499H24.4351C24.605 31.3525 24.7749 31.0127 24.9448 30.6729Z" fill="#E1EDF7"/>
<path d="M20.1445 11.0469V20.5625C22.7783 20.5625 24.9023 18.4385 24.9023 15.8047C24.9023 13.1709 22.7783 11.0469 20.1445 11.0469Z" fill="#E1EDF7"/>
<path d="M15.3865 15.8472C15.3865 18.481 17.5105 20.605 20.1443 20.605V11.0469C17.5105 11.0469 15.3865 13.2134 15.3865 15.8472Z" fill="white"/>
<path d="M20.1445 11.8115V19.8403C22.3535 19.8403 24.1377 18.0562 24.1377 15.8472C24.1377 13.6382 22.3535 11.8115 20.1445 11.8115Z" fill="#1E2D4F"/>
<path d="M16.1511 15.8472C16.1511 18.0562 17.9353 19.8403 20.1443 19.8403V11.8115C17.9353 11.8115 16.1511 13.5957 16.1511 15.8472Z" fill="#2D4375"/>
</g>
<defs>
<clipPath id="clip0_2919_2745">
<rect width="42" height="42" fill="white"/>
</clipPath>
</defs>
</svg>
