<svg width="58" height="42" viewBox="0 0 58 42" fill="none" xmlns="http://www.w3.org/2000/svg">
<g clip-path="url(#clip0_2919_2785)">
<path d="M54.9974 19.7766L33.0826 29.8447L32.3104 30.791L22.2981 30.6193V23.8184L53.5135 14.7666L55.2279 17.1682L54.9974 19.7766Z" fill="black"/>
<path d="M21.9623 27.749L25.4552 28.4161C25.1475 29.5263 25.0744 30.7257 25.3043 31.8323C25.6494 33.4956 26.5927 34.5435 27.7344 34.7639L24.2434 34.0908C23.1016 33.871 22.1589 32.8208 21.8132 31.1599C21.5815 30.055 21.6564 28.8575 21.9623 27.749Z" fill="#231F20"/>
<path d="M24.3106 24.2008L24.3534 24.1729L27.8439 24.8453C27.3274 25.1886 26.8801 25.6258 26.5252 26.1343L23.0608 25.4268C23.4011 24.947 23.8244 24.5318 24.3106 24.2008Z" fill="#414042"/>
<path d="M23.0597 25.4277L26.524 26.1352C26.0374 26.8279 25.6756 27.6003 25.4548 28.4175L21.9619 27.7504C22.1869 26.9171 22.5586 26.1305 23.0597 25.4277Z" fill="#231F20"/>
<path d="M27.8427 24.8458C25.8991 26.0933 24.7621 29.225 25.3045 31.8334C25.8468 34.4417 27.8624 35.5424 29.806 34.292C31.7497 33.0416 32.8866 29.9135 32.3449 27.3051C31.8031 24.6967 29.787 23.5954 27.8427 24.8458Z" fill="#414042"/>
<path d="M21.9095 27.9469C21.9166 27.9178 21.9237 27.8875 21.9315 27.8613C22.0061 27.5738 22.0971 27.2908 22.2041 27.0137L25.6952 27.6861C25.5883 27.9633 25.4973 28.2463 25.4225 28.5338C25.4148 28.5623 25.4077 28.5932 25.4006 28.6193C25.3507 28.8209 25.3085 29.0244 25.274 29.23L21.783 28.5569C21.8192 28.352 21.8596 28.1477 21.9095 27.9469Z" fill="#231F20"/>
<path d="M26.4236 23.6995L29.9141 24.3725C29.2607 24.2472 28.5479 24.3909 27.8428 24.8477L24.3523 24.1753C25.058 23.7179 25.7726 23.5741 26.4236 23.6995Z" fill="#231F20"/>
<path d="M21.8136 31.1592C21.8041 31.1111 21.7958 31.0624 21.7869 31.0137L25.2773 31.6867C25.2863 31.7348 25.2946 31.7835 25.3047 31.8316C25.6498 33.4949 26.5931 34.5428 27.7348 34.7632L24.2437 34.0901C23.102 33.8703 22.1593 32.8225 21.8136 31.1592Z" fill="black"/>
<path d="M27.99 25.1979C26.1212 26.3996 25.0288 29.4059 25.5503 31.9103C26.0719 34.4148 28.0084 35.4745 29.8766 34.2734C31.7448 33.0723 32.8379 30.0653 32.3169 27.5579C31.7959 25.0505 29.8582 23.9956 27.99 25.1979Z" fill="#231F20"/>
<path d="M28.2049 25.6094C26.4912 26.7113 25.4897 29.4706 25.9673 31.7688C26.4448 34.0671 28.2246 35.036 29.9359 33.9364C31.6473 32.8369 32.6512 30.0753 32.1736 27.777C31.696 25.4787 29.9187 24.5081 28.2049 25.6094Z" fill="#6D6E71"/>
<path d="M28.2841 25.9873C26.7266 26.9894 25.8159 29.4956 26.2501 31.586C26.6844 33.6764 28.2995 34.5561 29.8571 33.5558C31.4146 32.5554 32.3252 30.0475 31.891 27.9577C31.4568 25.8679 29.8416 24.9858 28.2841 25.9873Z" fill="black"/>
<path d="M30.5371 25.832C30.9244 26.274 31.222 26.8811 31.3782 27.6343C31.8564 29.9338 30.8543 32.6912 29.1405 33.7937C29.0538 33.8496 28.9665 33.8965 28.8792 33.9417C29.2285 33.8828 29.5616 33.7512 29.8569 33.5555C31.4144 32.5534 32.3251 30.0472 31.8908 27.9575C31.68 26.928 31.1756 26.1944 30.5371 25.832Z" fill="#A7A9AC"/>
<path d="M31.4705 28.2959C31.6309 30.1374 30.9448 32.1285 29.7656 33.2893C29.9486 33.2733 30.1304 33.2455 30.3098 33.2061C31.4604 32.1624 32.1388 30.2597 31.973 28.5181C31.8126 28.4288 31.6444 28.3545 31.4705 28.2959Z" fill="#E6E7E8"/>
<path d="M29.5272 25.5834C28.0255 25.6143 26.5084 27.4611 26.2007 29.8378C25.8728 32.3719 27.0561 34.293 28.7621 33.9894C30.366 33.7037 31.7049 31.5539 31.8315 29.3002C31.9514 27.1718 30.9475 25.5543 29.5272 25.5834ZM31.6141 29.3216C31.6069 29.4451 31.595 29.5687 31.5802 29.6905L31.2167 28.5618L30.9095 28.5862L31.2933 27.7029L30.9588 26.6699C31.4192 27.2781 31.68 28.2191 31.6141 29.3216ZM28.4402 32.1391L28.2168 32.6333L27.2937 32.7729L26.9623 31.63L27.4648 30.5916L28.0119 30.5322L28.101 30.3451L28.4479 30.3077L28.7247 31.2243L28.3879 31.965L28.4402 32.1391ZM29.8344 27.1742L30.025 26.7685L30.8074 26.734L31.1228 27.7124L30.7349 28.5987L30.2508 28.6373L30.1747 28.8078L29.8546 28.8345L29.5849 27.9726L29.8819 27.331L29.8344 27.1742ZM28.6344 29.6055C28.6772 29.1695 28.9475 28.8006 29.2368 28.7775C29.5261 28.7543 29.7233 29.078 29.687 29.5051C29.6508 29.9323 29.3865 30.3166 29.093 30.3487C28.7996 30.3807 28.5911 30.0469 28.6344 29.6055ZM29.3104 28.5589L29.4726 28.212L29.6312 28.7192C29.5915 28.672 29.5426 28.6335 29.4874 28.6059C29.4322 28.5783 29.372 28.5623 29.3104 28.5589ZM28.6612 29.0341L28.559 28.6991L28.9784 28.6664C28.8459 28.7624 28.7374 28.8876 28.6612 29.0323V29.0341ZM28.496 29.5123C28.4901 29.5485 28.4847 29.5847 28.4812 29.6222C28.4657 29.7667 28.4737 29.9127 28.5049 30.0546L28.2251 30.0837L28.496 29.5123ZM29.017 30.5815L28.8459 30.9587L28.6837 30.4241C28.7252 30.4721 28.7763 30.5107 28.8337 30.5375C28.8911 30.5644 28.9536 30.5787 29.017 30.5797V30.5815ZM29.6704 30.0766L29.7744 30.4128L29.3585 30.4597C29.4895 30.3565 29.5953 30.2249 29.668 30.0748L29.6704 30.0766ZM29.8231 29.6014C29.8284 29.5657 29.8332 29.5301 29.8361 29.4939C29.8483 29.3546 29.8385 29.2143 29.807 29.078L30.0684 29.0555L29.8231 29.6014ZM29.3544 27.8264L29.4043 27.9868L29.2035 28.4139L28.4907 28.4662L28.294 27.8336L28.1592 27.8419L28.0345 27.4326L28.5691 26.3734L29.3912 26.3449L29.6555 27.1849L29.3544 27.8264ZM28.0404 28.0872L28.2346 28.7246L28.3707 28.7139L28.4972 29.1297L28.0315 30.1039L27.4874 30.1604L27.3953 30.3481L27.0341 30.3867L26.7116 29.2836L27.2996 28.1353L28.0404 28.0872ZM28.9736 31.3728L28.9213 31.2011L29.1322 30.733L29.845 30.6492L30.0452 31.2955L30.1759 31.2789L30.3066 31.7001L29.7957 32.9154L28.9207 33.0562L28.6386 32.1105L28.9736 31.3728ZM30.2894 31.0163L30.0898 30.3754L29.9573 30.3879L29.829 29.9721L30.2448 29.0311L30.7307 28.9889L30.8044 28.819L31.1133 28.7929L31.437 29.8028L30.9731 30.9249L30.2894 31.0163ZM30.8323 26.5148L29.9579 26.5493L29.7672 26.952L29.5035 26.1204L28.6416 26.1465C28.9062 26.0039 29.1996 25.9227 29.4999 25.9089C30.0215 25.8941 30.4765 26.1222 30.8299 26.5148H30.8323ZM28.4497 26.2517L27.8456 27.4397L27.9697 27.8502L27.2284 27.8959L26.6058 29.103C26.9236 27.8146 27.6305 26.7643 28.4473 26.2517H28.4497ZM26.471 29.8123C26.4882 29.6756 26.5102 29.5402 26.5363 29.4071L26.9005 30.6546L27.264 30.6136L26.7549 31.6561L27.1066 32.8733C26.5714 32.1794 26.31 31.0734 26.4686 29.8123H26.471ZM27.2575 33.0467L28.294 32.8828L28.5174 32.3856L28.8007 33.336L29.7298 33.1822C29.4546 33.3844 29.1379 33.5228 28.8025 33.5873C28.1996 33.6906 27.6667 33.4815 27.2551 33.0467H27.2575ZM29.9252 33.0342L30.4937 31.6716L30.363 31.2522L31.0503 31.1625L31.5398 29.9744C31.3236 31.2284 30.7165 32.3731 29.9229 33.0342H29.9252Z" fill="#D1D3D4"/>
<g style="mix-blend-mode:multiply">
<path d="M29.1851 29.1525C30.1914 28.7765 31.1258 28.6725 31.9176 28.7961C31.9117 28.6214 31.901 28.4474 31.8778 28.2757C31.6247 26.3837 30.3648 25.3335 28.9896 25.7766C27.5557 26.2388 26.3165 28.2121 26.2773 30.3786C26.2748 30.5701 26.2824 30.7616 26.2999 30.9524C27.1535 30.1701 28.1449 29.5404 29.1851 29.1525Z" fill="#D1D3D4"/>
</g>
<path d="M28.9775 25.6349C27.4835 26.1102 26.1856 28.1726 26.1345 30.4465C26.0751 33.0228 27.6035 34.6754 29.4575 33.8497C31.2134 33.0674 32.2963 30.4596 31.9927 28.2451C31.7225 26.27 30.4079 25.1769 28.9775 25.6349ZM29.4361 33.4874C27.7336 34.2364 26.3246 32.7288 26.3638 30.3622C26.3988 28.254 27.5976 26.3276 28.9918 25.8761C30.3301 25.4431 31.5561 26.4701 31.7997 28.3193C32.07 30.3764 31.056 32.7751 29.4361 33.4874Z" fill="black"/>
<path d="M29.1532 29.1315C28.9887 29.2419 28.8966 29.5241 28.9477 29.7623C28.9988 30.0005 29.1734 30.1033 29.338 29.9928C29.5025 29.8823 29.5946 29.6007 29.5435 29.3625C29.4924 29.1243 29.3178 29.0204 29.1532 29.1315Z" fill="#E6E7E8"/>
<path d="M45.9782 19.0156L48.9252 19.5788C48.6656 20.5161 48.6044 21.5283 48.7986 22.4622C49.0897 23.8641 49.8857 24.7497 50.8492 24.9357L47.9034 24.3678C46.9399 24.1819 46.1439 23.2985 45.8523 21.8943C45.6586 20.9616 45.7198 19.9512 45.9782 19.0156Z" fill="#231F20"/>
<path d="M47.96 16.0208L47.9957 15.9971L50.942 16.565C50.506 16.8545 50.1284 17.2235 49.8288 17.6526L46.905 17.0586C47.1922 16.6527 47.5495 16.3013 47.96 16.0208Z" fill="#414042"/>
<path d="M46.9037 17.0547L49.8275 17.6487C49.417 18.2341 49.1116 18.8866 48.9252 19.5769L45.9783 19.0138C46.1681 18.311 46.4815 17.6477 46.9037 17.0547Z" fill="#231F20"/>
<path d="M50.9407 16.564C49.3 17.6196 48.3406 20.2594 48.7986 22.4609C49.2566 24.6623 50.9567 25.5908 52.5974 24.5352C54.2381 23.4796 55.1969 20.8404 54.7395 18.6395C54.2821 16.4386 52.5808 15.509 50.9407 16.564Z" fill="#414042"/>
<path d="M45.9368 19.1818C45.9427 19.1574 45.9487 19.1331 45.9552 19.1093C46.0185 18.8676 46.0952 18.6296 46.1851 18.3965L49.1315 18.9644C49.0411 19.1974 48.9642 19.4354 48.901 19.6772L48.8826 19.7491C48.8404 19.919 48.8048 20.0912 48.7757 20.2641L45.8269 19.6962C45.856 19.5233 45.8917 19.3511 45.9368 19.1818Z" fill="#231F20"/>
<path d="M49.7426 15.5967L52.6884 16.1646C52.1395 16.0588 51.536 16.18 50.9408 16.5632L47.9944 15.9953C48.5902 15.6133 49.1937 15.4915 49.7426 15.5967Z" fill="#231F20"/>
<path d="M45.8524 21.8935C45.8441 21.8525 45.837 21.8115 45.8298 21.7705L48.7756 22.3384C48.7833 22.3794 48.7899 22.4204 48.7988 22.4614C49.0898 23.8633 49.8858 24.7489 50.8493 24.9349L47.9036 24.367C46.94 24.1805 46.1441 23.2948 45.8524 21.8935Z" fill="black"/>
<path d="M51.0642 16.8606C49.4877 17.8746 48.5658 20.4122 49.0054 22.5282C49.445 24.6441 51.0803 25.5363 52.6568 24.5223C54.2334 23.5083 55.1553 20.9706 54.7157 18.8553C54.2761 16.74 52.6414 15.8466 51.0642 16.8606Z" fill="#231F20"/>
<path d="M51.2461 17.2078C49.8002 18.1381 48.9543 20.4649 49.3577 22.4062C49.761 24.3474 51.2586 25.1648 52.7068 24.2346C54.155 23.3043 54.9985 20.9775 54.5952 19.0374C54.1918 17.0974 52.6925 16.2776 51.2461 17.2078Z" fill="#6D6E71"/>
<path d="M51.3127 17.5282C49.9987 18.3734 49.23 20.4888 49.5965 22.2524C49.963 24.0161 51.3257 24.7604 52.6403 23.9157C53.9549 23.071 54.723 20.9557 54.3565 19.192C53.99 17.4284 52.6273 16.6829 51.3127 17.5282Z" fill="black"/>
<path d="M53.2141 17.3975C53.5408 17.7699 53.7921 18.2826 53.924 18.9182C54.3273 20.8582 53.482 23.1856 52.0356 24.1159C51.9625 24.1628 51.8888 24.2026 51.8152 24.2406C52.1101 24.1912 52.3913 24.08 52.6403 23.9145C53.9549 23.0692 54.723 20.9545 54.3564 19.1908C54.1759 18.3224 53.7529 17.7028 53.2141 17.3975Z" fill="#A7A9AC"/>
<path d="M54.002 19.4766C54.1368 21.0282 53.5582 22.711 52.5632 23.69C52.7177 23.6769 52.8711 23.6535 53.0224 23.6199C53.993 22.7395 54.5669 21.1339 54.4273 19.6643C54.2916 19.5888 54.1492 19.526 54.002 19.4766Z" fill="#E6E7E8"/>
<path d="M52.3618 17.1878C51.0948 17.214 49.8146 18.7727 49.555 20.7781C49.2788 22.9166 50.2774 24.5371 51.7173 24.2829C53.0705 24.0452 54.2003 22.2293 54.3072 20.3261C54.4076 18.5279 53.5606 17.1635 52.3618 17.1878ZM54.1231 20.3421C54.1171 20.4466 54.1071 20.5506 54.0946 20.654L53.788 19.7L53.5285 19.7207L53.8528 18.9752L53.57 18.1038C53.9562 18.6182 54.1777 19.4119 54.1231 20.3421ZM51.4446 22.7182L51.2563 23.134L50.4776 23.2528L50.1972 22.2887L50.6219 21.4125L51.0835 21.3608L51.1583 21.2034L51.4517 21.1714L51.6846 21.9436L51.4019 22.5721L51.4446 22.7182ZM52.6214 18.5279L52.7824 18.1858L53.4423 18.1573L53.7085 18.983L53.3811 19.7308L52.9731 19.7629L52.9083 19.9073L52.638 19.9292L52.4117 19.2039L52.6647 18.6622L52.6214 18.5279ZM51.6086 20.5803C51.6448 20.2126 51.8729 19.9007 52.1171 19.8811C52.3612 19.8615 52.5275 20.1354 52.4972 20.4954C52.4669 20.8553 52.243 21.1803 51.9965 21.2082C51.7499 21.2361 51.5723 20.9545 51.6086 20.5821V20.5803ZM52.1794 19.697L52.3161 19.4041L52.4497 19.8324C52.4164 19.7925 52.3751 19.7598 52.3287 19.7364C52.2822 19.713 52.2314 19.6994 52.1794 19.6964V19.697ZM51.6311 20.0962L51.545 19.8134L51.9014 19.7861C51.7882 19.8675 51.6956 19.9743 51.6311 20.0979V20.0962ZM51.4921 20.4995C51.4868 20.5304 51.4826 20.5589 51.4791 20.5928C51.4661 20.7146 51.473 20.8378 51.4993 20.9575L51.2617 20.9819L51.4921 20.4995ZM51.9317 21.4024L51.7868 21.7202L51.6502 21.2688C51.6849 21.31 51.7279 21.3434 51.7764 21.3667C51.8249 21.39 51.8779 21.4028 51.9317 21.4042V21.4024ZM52.4806 20.9759L52.5685 21.2599L52.2181 21.2997C52.3288 21.2136 52.4186 21.1035 52.4806 20.9777V20.9759ZM52.6101 20.5744C52.6143 20.5447 52.6184 20.515 52.6208 20.4835C52.631 20.3657 52.6228 20.2471 52.5964 20.1318L52.8168 20.1122L52.6101 20.5744ZM52.2145 19.0768L52.2567 19.2123L52.0868 19.5722L51.485 19.6168L51.3223 19.0822L51.2082 19.0893L51.1048 18.7459L51.5557 17.8549L52.2489 17.8306L52.4723 18.5392L52.2145 19.0768ZM51.1048 19.2984L51.2682 19.8372L51.3829 19.8283L51.4898 20.1787L51.0971 21.0032L50.6379 21.0508L50.5607 21.2094L50.256 21.242L49.9833 20.3112L50.4793 19.3423L51.1048 19.2984ZM51.8925 22.0725L51.8491 21.9275L52.0274 21.5325L52.6309 21.4618L52.7996 22.0077L52.9101 21.9929L53.0206 22.3493L52.5899 23.3734L51.8515 23.4922L51.6139 22.6962L51.8925 22.0725ZM53.0033 21.7755L52.8352 21.2349L52.7253 21.2468L52.6166 20.8975L52.9689 20.1039L53.3788 20.0677L53.4411 19.9245L53.7019 19.9025L53.9752 20.7549L53.5837 21.7054L53.0033 21.7755ZM53.4613 17.9737L52.7236 18.0028L52.5626 18.3426L52.3398 17.6381L51.6127 17.6607C51.8361 17.5408 52.0836 17.4728 52.3369 17.4617C52.7788 17.4504 53.1631 17.6423 53.4613 17.9737ZM51.4512 17.7516L50.9409 18.756L51.0454 19.1024L50.4193 19.141L49.8942 20.1591C50.1651 19.0709 50.7615 18.184 51.4512 17.7516ZM49.7808 20.7567C49.7958 20.6407 49.8142 20.5266 49.836 20.4146L50.1431 21.4678L50.4502 21.4333L50.0207 22.3131L50.3178 23.3401C49.8651 22.7544 49.6471 21.8206 49.7808 20.7567ZM50.4443 23.4857L51.3193 23.3496L51.5076 22.9297L51.7452 23.731L52.5293 23.6009C52.2971 23.7719 52.0296 23.8888 51.7464 23.9431C51.2421 24.0292 50.7924 23.8546 50.4443 23.4857ZM52.6962 23.475L53.1756 22.3255L53.0651 21.9691L53.6455 21.8937L54.0583 20.888C53.8772 21.9537 53.3657 22.9178 52.6962 23.475Z" fill="#D1D3D4"/>
<g style="mix-blend-mode:multiply">
<path d="M52.0712 20.1978C52.9206 19.8806 53.7089 19.7933 54.376 19.8967C54.3706 19.7493 54.3611 19.5997 54.3421 19.4577C54.1289 17.8609 53.065 16.9747 51.9066 17.3489C50.6966 17.7386 49.6523 19.4048 49.6178 21.232C49.6157 21.3938 49.622 21.5556 49.6368 21.7168C50.3451 21.0613 51.1711 20.5459 52.0712 20.1978Z" fill="#D1D3D4"/>
</g>
<path d="M51.8977 17.2311C50.6372 17.6351 49.5418 19.3696 49.4984 21.2907C49.4497 23.4654 50.7381 24.8596 52.3028 24.1628C53.7849 23.5029 54.6985 21.302 54.4413 19.4332C54.2144 17.7669 53.1047 16.8444 51.8977 17.2311ZM52.285 23.8581C50.848 24.4895 49.6588 23.2177 49.6921 21.2206C49.7218 19.4415 50.7334 17.8157 51.9095 17.4349C53.0382 17.069 54.0742 17.9362 54.2791 19.4967C54.5072 21.2325 53.6518 23.2599 52.285 23.8581Z" fill="black"/>
<path d="M52.0463 20.182C51.9073 20.2753 51.8295 20.5135 51.8728 20.7167C51.9162 20.9198 52.0629 21.0048 52.2019 20.9115C52.3409 20.8182 52.4187 20.58 52.376 20.3769C52.3332 20.1737 52.1853 20.0894 52.0463 20.182Z" fill="#E6E7E8"/>
<path d="M32.5242 30.7064L48.0645 24.4365C47.9801 23.5864 47.8078 22.0966 47.8078 22.0966L48.4452 19.0712L50.1435 16.4379L52.5137 15.4631L53.912 16.1819L54.7835 17.6842L55.0959 19.4419L55.1482 19.2637C55.5669 17.8355 55.4501 16.3035 54.8197 14.9552L53.9643 13.1251C53.8618 12.9058 53.7078 12.7146 53.5156 12.5675C53.3233 12.4205 53.0984 12.322 52.86 12.2804L42.1575 10.4121C42.1575 10.4121 31.2102 8.70254 20.3651 12.2637C20.7922 16.1249 11.1494 17.2114 11.1494 17.2114C9.50888 17.8885 7.94593 18.7401 6.48747 19.7514C4.08643 21.42 1.88913 24.9194 1.92952 25.3269C1.96992 25.7344 2.29605 27.2801 2.29605 27.2801L1.40501 29.172C1.32362 29.3445 1.29808 29.538 1.33194 29.7257C3.09085 34.3917 15.3604 36.0099 17.7561 35.6119L24.1122 34.0122V30.1748L25.6982 25.9798L27.8338 24.102L30.5823 23.6565L32.0466 24.8446L32.8616 26.4841V29.5683L32.5242 30.7064Z" fill="#ED1C24"/>
<path opacity="0.4" d="M11.1494 17.2093C9.50886 17.8865 7.94592 18.738 6.48745 19.7493C4.08641 21.418 1.88911 24.9174 1.9295 25.3249C1.9699 25.7324 2.29603 27.278 2.29603 27.278C2.29603 27.278 2.29602 28.6062 2.62808 28.9229C2.42789 28.2498 12.3612 17.0293 12.3612 17.0293C11.6258 17.1552 11.1494 17.2093 11.1494 17.2093Z" fill="white"/>
<g style="mix-blend-mode:multiply">
<path d="M53.9644 13.1232C53.855 12.891 53.6882 12.6906 53.4797 12.541C51.8464 12.7603 50.2476 13.1861 48.7216 13.8081L47.8804 14.8025C46.6915 16.2095 45.253 17.385 43.6373 18.2698C40.6018 19.9331 35.76 22.5563 35.1784 22.722C34.7513 22.8444 32.589 22.1648 31.644 21.9373C30.0532 21.5547 23.9466 21.1467 13.5179 34.1974C12.1195 33.8956 3.25313 31.8842 1.84826 29.1113C1.65974 29.2261 1.48304 29.3592 1.32076 29.5087C1.3155 29.5812 1.3189 29.6539 1.33086 29.7256C2.4809 32.7765 8.12353 34.5235 12.5627 35.2565L12.7047 35.2791L12.9607 35.3201L13.1502 35.348C13.2381 35.3611 13.3284 35.3747 13.4127 35.3866L13.56 35.4068C13.8862 35.452 14.2022 35.4906 14.5063 35.5256L14.6596 35.5423L14.7071 35.5476C16.0906 35.689 17.1949 35.7068 17.7562 35.6135L24.1123 34.0138V30.1746L25.6983 25.9796L27.8339 24.1019L30.5824 23.6564L32.0467 24.8445L32.8617 26.484V29.5681L32.5272 30.7063L48.0676 24.4364C47.9832 23.5863 47.8109 22.0965 47.8109 22.0965L48.4483 19.0711L50.1466 16.4378L52.5168 15.463L53.2777 15.8545C53.7803 15.1339 53.9852 14.2417 54.0642 13.3305L53.9644 13.1232ZM45.6338 24.927L33.0405 29.9459C33.1094 29.5895 42.9791 24.687 42.9791 24.687L46.1061 24.2433C46.1035 24.3911 46.0573 24.5349 45.9733 24.6565C45.8892 24.7782 45.7711 24.8723 45.6338 24.927Z" fill="#D1D3D4"/>
</g>
<g style="mix-blend-mode:multiply">
<path d="M46.3419 20.124C41.9841 22.2774 39.6294 25.1614 32.8575 28.4332V29.5678L32.5231 30.706L48.0634 24.4361C47.979 23.586 47.8068 22.0962 47.8068 22.0962C47.8068 22.0962 46.0318 21.5461 46.3419 20.124ZM45.6338 24.9267L33.0405 29.9456C33.1094 29.5892 42.9791 24.6867 42.9791 24.6867L46.1061 24.243C46.1035 24.3908 46.0573 24.5346 45.9733 24.6562C45.8892 24.7778 45.7711 24.872 45.6338 24.9267ZM1.84826 29.1092C1.65974 29.224 1.48304 29.3571 1.32076 29.5066C1.3155 29.5791 1.3189 29.6518 1.33086 29.7235C2.4809 32.7744 8.12353 34.5214 12.5627 35.2544L12.7047 35.277L12.9607 35.318L13.1502 35.3459C13.2381 35.359 13.3284 35.3726 13.4127 35.3845L13.56 35.4047C13.8862 35.4499 14.2022 35.4885 14.5063 35.5235L14.6596 35.5402L14.7071 35.5455C16.0906 35.6869 17.1949 35.7047 17.7562 35.6114L24.1123 34.0117V31.9029C20.4044 33.0981 16.9305 33.8466 13.6991 34.2351C13.3842 34.168 3.35055 32.074 1.84826 29.1092Z" fill="#D1D3D4"/>
</g>
<g style="mix-blend-mode:multiply">
<path d="M54.8197 14.9539L54.0612 13.3311C53.9822 14.2423 53.7772 15.1345 53.2747 15.8551L53.912 16.1824L54.7835 17.6847L55.0959 19.4424L55.1482 19.2642C55.5674 17.8354 55.4506 16.3027 54.8197 14.9539Z" fill="#BCBEC0"/>
</g>
<path d="M8.67162 30.9138C8.74052 30.9138 8.81002 30.9179 8.87893 30.9203C15.7429 25.3383 27.2628 21.5365 27.2628 21.5365C27.2628 21.5365 18.7368 16.0121 13.2438 16.517C8.29441 16.9762 3.62657 26.6814 2.75098 28.6054C3.00997 28.8656 5.55715 30.7653 8.67162 30.9138Z" fill="#F14950"/>
<path d="M42.1576 10.4102C42.1576 10.4102 31.2103 8.70059 20.3652 12.2618C20.3834 12.4232 20.3834 12.5862 20.3652 12.7477C24.0482 14.1817 32.9419 15.3899 32.9419 15.3899C32.9419 15.3899 35.7903 11.3868 43.9397 11.9024C47.2068 12.1091 48.5529 11.8056 49.0079 11.6054L42.1576 10.4102Z" fill="#F4777C"/>
<path opacity="0.4" d="M23.5884 13.6957C31.5073 10.6882 39.9069 10.5617 45.8471 11.0541L42.1576 10.4102C42.1576 10.4102 31.2103 8.70059 20.3652 12.2618C20.3834 12.4232 20.3834 12.5862 20.3652 12.7477C21.2177 13.0797 22.354 13.3987 23.5884 13.6957Z" fill="url(#paint0_linear_2919_2785)"/>
<path opacity="0.4" d="M53.0863 12.5962C52.7572 12.4453 51.8983 12.1442 49.9172 11.8834C49.5725 11.8395 49.2227 11.8584 48.8848 11.9392C47.0766 12.3693 46.1309 12.0242 42.9255 12.0242C42.9255 12.0242 46.2342 12.1899 48.7387 13.7967C50.1369 13.2308 51.5958 12.828 53.0863 12.5962Z" fill="url(#paint1_linear_2919_2785)"/>
<path opacity="0.4" d="M32.8586 27.9257C33.1395 27.5426 33.3742 27.1276 33.5577 26.6895C33.2269 23.3036 31.263 22.1951 28.0155 23.0131C24.8529 23.8097 22.156 26.4584 20.8777 30.4134C21.9001 30.8792 22.9915 31.1751 24.1092 31.2896V30.1752L25.6952 25.9802L27.8308 24.1025L30.5793 23.657L32.0436 24.8451L32.8586 26.4846V27.9257Z" fill="url(#paint2_linear_2919_2785)"/>
<path opacity="0.4" d="M50.8908 14.9041C48.5979 15.5124 45.7917 17.964 43.9871 21.3713C45.0759 21.9481 46.4006 22.2944 47.8328 22.314L47.8078 22.0966L48.4452 19.0712L50.1435 16.4379L52.5137 15.4631L53.912 16.1819L53.8746 16.0833C53.5562 15.2415 52.7311 14.6766 51.8341 14.7414C51.5153 14.766 51.1995 14.8205 50.8908 14.9041Z" fill="url(#paint3_linear_2919_2785)"/>
<path style="mix-blend-mode:multiply" opacity="0.4" d="M41.6444 24.1048L33.631 29.0886C33.4788 29.1832 33.3478 29.3082 33.2462 29.4558C33.1446 29.6035 33.0746 29.7705 33.0405 29.9464C33.1094 29.59 42.9792 24.6875 42.9792 24.6875L46.1061 24.2438L46.1281 23.0426C44.5578 22.8995 42.9836 23.2724 41.6444 24.1048Z" fill="url(#paint4_linear_2919_2785)"/>
<path opacity="0.3" d="M42.9792 24.6849C42.9792 24.6849 33.1094 29.588 33.0405 29.9438L45.6339 24.9249C45.7717 24.8706 45.8904 24.7767 45.975 24.655C46.0596 24.5334 46.1062 24.3894 46.1091 24.2412L42.9792 24.6849Z" fill="white"/>
<path d="M42.979 24.6855L46.0792 19.3987C46.1565 19.2629 46.2649 19.1475 46.3956 19.0619C46.5262 18.9762 46.6753 18.9229 46.8307 18.9062C46.4054 20.6547 46.1625 22.4426 46.106 24.2412C46.106 24.2412 45.0908 25.2558 42.979 24.6855Z" fill="black"/>
<path opacity="0.4" d="M35.1782 22.7202C35.7598 22.5545 40.6017 19.9283 43.6372 18.268C44.3453 17.8781 45.0208 17.4315 45.6568 16.9326C36.4031 21.1448 36.4031 19.7281 32.874 22.2646C33.831 22.5254 34.8925 22.8022 35.1782 22.7202Z" fill="url(#paint5_linear_2919_2785)"/>
<path d="M29.8523 23.2908C26.3647 23.2908 23.615 26.8977 23.615 32.9924V34.1353L24.3807 33.9423V32.6354C24.3807 27.209 26.9623 23.8724 30.1463 23.8724C31.5773 23.8724 32.7368 25.5814 32.7368 27.5345V28.1969C32.7369 29.079 32.593 29.9552 32.3109 30.791L32.8087 30.5902L32.9055 30.1274C33.0747 29.3198 33.1522 28.4956 33.1366 27.6706L33.1259 27.1205C33.1253 25.2624 31.9551 23.2908 29.8523 23.2908ZM52.7852 15.2715C49.8382 15.2715 46.8651 18.6135 47.7621 24.5567L48.3027 24.3387C48.0652 23.1613 48.0519 21.9497 48.2635 20.7674C48.8498 17.6108 50.6247 15.755 52.5767 15.755C54.152 15.755 54.9973 18.1377 54.9973 19.776L55.1482 19.2604C55.0157 17.4023 54.3154 15.3297 52.7852 15.2733V15.2715Z" fill="#B2151B"/>
<path d="M33.9712 10.2135L34.1862 10.3774C34.2672 10.4398 34.3626 10.4807 34.4636 10.4962L40.3124 11.3392C40.3872 11.3497 40.4626 11.3547 40.5382 11.354C40.8476 11.3504 41.7262 11.354 42.1236 11.4502C42.4479 11.5316 43.0241 11.673 43.3746 11.7579C43.5709 11.8052 43.7728 11.8252 43.9746 11.8173L47.6338 11.6878C46.9393 11.4283 39.8972 9.92003 33.9712 10.2135Z" fill="#231F20"/>
<path d="M11.1494 17.2103C11.1494 17.2103 11.4256 18.0954 12.7462 19.3565L19.3273 21.3251C21.5359 21.5948 25.7428 21.5889 27.1032 21.5729C27.1644 21.5719 27.2247 21.5579 27.2801 21.5317C27.3356 21.5056 27.3848 21.468 27.4245 21.4214C31.8256 16.2848 32.9406 15.3908 32.9406 15.3908C32.9671 15.3617 32.9858 15.3265 32.9953 15.2883C33.0047 15.2501 33.0046 15.2102 32.9948 15.1721C32.985 15.134 32.966 15.0989 32.9393 15.07C32.9126 15.0411 32.8792 15.0193 32.842 15.0065C25.867 12.6108 21.1219 12.2983 20.3675 12.2627C20.2938 12.2591 15.9289 14.3275 11.1494 17.2103Z" fill="black"/>
<path d="M12.8896 17.3378C14.3443 17.9598 18.3546 19.4454 26.5296 21.0161C26.7383 21.0559 26.9539 21.0406 27.1549 20.9715C27.3558 20.9024 27.5353 20.782 27.6754 20.6222C31.9726 15.7126 32.872 15.1922 32.7163 15.1388C25.7413 12.7431 21.0883 12.4407 20.3315 12.4063C20.2632 12.4033 17.2847 14 12.8468 16.6595C12.7866 16.6955 12.7375 16.7475 12.7048 16.8096C12.6722 16.8717 12.6572 16.9416 12.6616 17.0117C12.6661 17.0817 12.6897 17.1492 12.7299 17.2067C12.7701 17.2643 12.8253 17.3096 12.8896 17.3378Z" fill="#384D52"/>
<path d="M17.4348 16.4387L24.2435 14.3501L24.8684 13.6967L22.298 12.9951C22.298 12.9951 16.2948 15.0528 17.4348 16.4387Z" fill="#607175"/>
<path opacity="0.4" d="M12.8893 17.3357C13.2772 17.5015 13.8487 17.729 14.6304 18.0028C19.578 16.9805 25.4143 16.3395 31.7027 16.2207C32.5806 15.3261 32.7993 15.1634 32.7161 15.1349C25.741 12.7392 21.0881 12.4368 20.3313 12.4023C20.263 12.3994 17.2845 13.9961 12.8466 16.6556C12.7859 16.6915 12.7363 16.7435 12.7033 16.8058C12.6704 16.8681 12.6553 16.9384 12.6597 17.0087C12.6641 17.0791 12.6879 17.1469 12.7284 17.2046C12.7689 17.2623 12.8246 17.3077 12.8893 17.3357Z" fill="url(#paint6_linear_2919_2785)"/>
<path d="M47.6028 14.2815C47.6192 14.2559 47.6294 14.2269 47.6325 14.1967C47.6357 14.1665 47.6318 14.136 47.6212 14.1076C47.6105 14.0792 47.5934 14.0536 47.5711 14.033C47.5489 14.0123 47.5221 13.9972 47.493 13.9887C47.493 13.9887 44.1771 12.8256 42.7782 12.4394C42.5804 12.3854 37.7331 12.4032 33.9914 15.1916C32.6584 16.1848 30.8965 18.211 29.0301 20.8942C29.0078 20.9262 28.994 20.9633 28.9901 21.0021C28.9863 21.0409 28.9924 21.08 29.008 21.1157C29.0235 21.1515 29.0479 21.1827 29.079 21.2063C29.11 21.2299 29.1465 21.2451 29.1851 21.2506L32.261 21.6854C32.2716 21.6863 32.2824 21.6863 32.293 21.6854C32.3248 21.6855 32.3562 21.6788 32.3851 21.6658C32.7944 21.4876 42.101 17.4322 44.0345 14.2649C44.0958 14.1611 44.1865 14.0779 44.2951 14.0258C44.4037 13.9736 44.5254 13.9549 44.6446 13.972C45.2636 14.0688 46.2598 14.3575 46.9203 14.5387C47.0466 14.5742 47.181 14.5684 47.3038 14.5221C47.4266 14.4759 47.5314 14.3915 47.6028 14.2815Z" fill="black"/>
<path d="M34.1282 15.3754C33.4938 15.8506 32.6788 16.6276 31.7129 17.758L32.9889 21.144C34.5387 20.424 38.3535 18.5766 41.0985 16.6365L38.8353 13.209C37.3407 13.5951 35.6364 14.2515 34.1282 15.3754Z" fill="#384D52"/>
<path d="M43.7454 14.2184L43.4371 13.8103C43.1602 13.4433 42.7913 13.156 42.3677 12.9774C41.9441 12.7988 41.4808 12.7353 41.0248 12.7933C40.518 12.8581 39.927 12.9549 39.2866 13.101L41.4453 16.3866C42.4439 15.6524 43.2725 14.911 43.7454 14.2184Z" fill="#384D52"/>
<path opacity="0.4" d="M34.128 15.3736C33.4935 15.8489 32.6785 16.6258 31.7126 17.7563L32.473 19.776C34.3709 17.9297 36.8884 16.2047 39.855 14.7535L38.835 13.209C37.3405 13.5933 35.6362 14.2497 34.128 15.3736ZM41.0246 12.792C40.5179 12.8568 39.9268 12.9536 39.2865 13.0997L40.2482 14.564C41.1353 14.143 42.0596 13.747 43.0211 13.3759C42.7462 13.1469 42.427 12.9768 42.0836 12.8764C41.7401 12.7759 41.3796 12.7472 41.0246 12.792Z" fill="url(#paint7_linear_2919_2785)"/>
<g style="mix-blend-mode:multiply">
<path d="M34.31 21.6906C34.31 21.6906 34.2156 21.8908 34.31 22.0274C34.4045 22.164 35.3235 22.6654 35.3235 22.6654C35.3235 22.6654 35.7892 23.5665 36.0737 23.7026C36.3582 23.8386 37.3212 23.3295 37.3212 23.3295L36.5982 22.0452C36.5982 22.0452 35.226 21.3419 34.9944 21.3847C34.7627 21.4275 34.3534 21.4952 34.31 21.6906Z" fill="#939598"/>
</g>
<path d="M33.5733 20.143L34.0895 21.4629C34.0895 21.4629 34.405 22.2084 34.9544 21.9863C35.5039 21.7641 35.277 21.4249 35.277 21.4249L34.4323 19.9927C34.4323 19.9927 33.5531 19.8947 33.5733 20.143Z" fill="#B2151B"/>
<g style="mix-blend-mode:multiply">
<path d="M35.277 21.4239L34.4323 19.9917C34.4323 19.9917 33.5531 19.8914 33.5733 20.1397L33.7955 20.7081C34.6562 20.8115 34.914 21.1709 35.2283 21.8101C35.2782 21.7603 35.3102 21.6953 35.319 21.6254C35.3278 21.5554 35.313 21.4845 35.277 21.4239Z" fill="#A7A9AC"/>
</g>
<path d="M33.5852 20.5618C33.5852 20.5618 36.9854 20.8083 37.0959 20.7703C37.2063 20.7322 37.9412 19.7468 37.9412 19.7468C37.9412 19.7468 37.776 19.0648 37.5004 18.9888C37.2248 18.9127 35.0002 18.7803 35.0002 18.7803C35.0002 18.7803 32.6478 19.8982 33.5852 20.5618Z" fill="#ED1C24"/>
<g style="mix-blend-mode:multiply">
<path d="M33.5649 20.372H33.4075C33.4507 20.449 33.5119 20.5144 33.5857 20.5627C33.5857 20.5627 36.9859 20.8092 37.0964 20.7712C37.2069 20.7332 37.9417 19.7477 37.9417 19.7477C37.9148 19.644 37.8817 19.542 37.8425 19.4424C37.0584 19.9919 35.4384 20.372 33.5649 20.372Z" fill="#BCBEC0"/>
</g>
<g style="mix-blend-mode:multiply">
<path d="M37.517 18.9961C36.6705 19.4808 36.62 19.9281 36.7543 20.4954C36.7792 20.6017 36.8761 20.6992 37.0252 20.774C37.0488 20.775 37.0724 20.7738 37.0958 20.7704C37.2057 20.7324 37.9411 19.7469 37.9411 19.7469C37.9411 19.7469 37.7825 19.0953 37.517 18.9961Z" fill="#D1D3D4"/>
</g>
<path opacity="0.8" d="M37.0734 19.3076C36.6724 19.351 35.9661 19.512 35.1725 19.7531C34.5955 19.9214 34.0304 20.1278 33.4807 20.3709H33.5657C34.1404 20.3718 34.7145 20.3341 35.2842 20.2581L35.3145 20.2497C35.8782 20.0787 36.3837 19.8987 36.7586 19.7413C36.8272 19.5735 36.9351 19.4248 37.0734 19.3076Z" fill="white"/>
<path d="M13.6504 28.1219L21.169 25.9805C21.169 25.9805 19.4974 27.1727 18.1668 28.5069C17.9012 28.7757 17.5492 28.9421 17.173 28.9767L14.5551 29.206C14.4509 29.2168 14.3458 29.1953 14.2542 29.1445C14.1625 29.0938 14.0886 29.0161 14.0425 28.9221L13.6504 28.1219Z" fill="black"/>
<path d="M18.9425 27.0885L19.4065 26.4814L19.0388 26.586L18.7608 26.9495C18.478 27.3181 18.1239 27.6259 17.7195 27.8545C17.3151 28.0831 16.8688 28.2279 16.4072 28.2802L15.7057 28.3586C15.5968 28.3703 15.4869 28.3514 15.3882 28.3039C15.2896 28.2565 15.2061 28.1824 15.1473 28.0901L14.9358 27.755L14.7065 27.8204L14.9542 28.2118C15.028 28.3276 15.1298 28.423 15.2501 28.4891C15.3704 28.5552 15.5054 28.59 15.6427 28.5902C15.6721 28.5901 15.7014 28.5885 15.7306 28.5855L16.4328 28.5071C16.9249 28.4512 17.4007 28.2967 17.8319 28.053C18.2631 27.8093 18.6408 27.4813 18.9425 27.0885Z" fill="white"/>
<path d="M3.85118 24.6403L4.41194 23.8805L5.32792 20.9502L4.04067 22.6729C3.69257 23.1766 3.52566 23.9952 3.64862 24.5951C3.65293 24.6167 3.66339 24.6365 3.67876 24.6522C3.69413 24.668 3.71375 24.6789 3.7352 24.6837C3.75666 24.6884 3.77903 24.6869 3.79962 24.6792C3.82021 24.6715 3.83813 24.658 3.85118 24.6403Z" fill="black"/>
<path d="M4.99535 22.012L5.12247 21.6045C4.88902 21.8587 4.235 22.6072 4.16431 23.1133C4.12095 23.4252 4.10135 23.6182 4.09184 23.7258C4.08936 23.7553 4.09557 23.7849 4.10971 23.811C4.12385 23.8371 4.1453 23.8584 4.17143 23.8725C4.19381 23.8841 4.21867 23.8903 4.2439 23.8903C4.27874 23.8904 4.31253 23.8784 4.33955 23.8564L4.44529 23.7721L4.5332 23.4911L4.26529 23.7103C4.27539 23.6004 4.29499 23.418 4.3342 23.1365C4.37994 22.8104 4.72448 22.3405 4.99535 22.012Z" fill="white"/>
<path d="M17.2042 31.1722C15.1964 30.6708 11.8051 31.2405 8.6716 31.0908C5.53812 30.9411 2.97729 29.0188 2.74325 28.7741C2.5092 28.5293 2.29594 27.2783 2.29594 27.2783L1.72508 28.7574C1.65441 28.9323 1.62671 29.1215 1.6443 29.3093C1.98408 32.3751 9.3476 35.0666 16.808 35.4277C17.9479 35.483 20.6501 34.2516 20.9346 33.7496C21.2192 33.2477 19.212 31.6741 17.2042 31.1722Z" fill="#ED1C24"/>
<g style="mix-blend-mode:multiply">
<path d="M17.2042 31.1722C15.1964 30.6708 11.8051 31.2405 8.6716 31.0908C5.53812 30.9411 2.97729 29.0188 2.74325 28.7741C2.5092 28.5293 2.29594 27.2783 2.29594 27.2783L1.72508 28.7574C1.65441 28.9323 1.62671 29.1215 1.6443 29.3093C1.98408 32.3751 9.3476 35.0666 16.808 35.4277C17.9479 35.483 20.6501 34.2516 20.9346 33.7496C21.2192 33.2477 19.212 31.6741 17.2042 31.1722Z" fill="#808285"/>
</g>
<path d="M2.296 27.2783L1.72513 28.7574C1.65518 28.9304 1.62729 29.1175 1.64376 29.3033C1.71385 29.9526 2.10115 30.5847 2.73617 31.1817L2.60251 28.9107C2.58736 28.6406 2.54516 28.3728 2.47657 28.1111C2.36905 27.7072 2.296 27.2783 2.296 27.2783Z" fill="#F4777C"/>
<g style="mix-blend-mode:multiply">
<path d="M8.66123 31.0893C5.78556 30.9485 3.3958 29.3173 2.84692 28.8652L3.02513 31.4391C4.11814 32.348 5.78675 33.1654 7.78623 33.823L8.66123 31.0893Z" fill="black"/>
</g>
<g style="mix-blend-mode:multiply">
<path d="M17.2043 31.4567C15.6729 31.0742 13.3372 31.3135 10.9249 31.3825C10.0576 31.4074 9.28183 31.6409 8.93433 32.4357L8.26367 33.9718C10.7907 34.7506 13.7881 35.2787 16.8081 35.4242C17.948 35.4794 20.3366 34.2326 20.6218 33.7306C20.9069 33.2287 19.2121 31.961 17.2043 31.4567Z" fill="black"/>
</g>
<path d="M8.26367 33.9733C10.7907 34.7521 13.7881 35.2802 16.8081 35.4257C17.948 35.4809 20.6503 34.2495 20.9348 33.7476C11.7803 33.2878 8.26367 33.9733 8.26367 33.9733Z" fill="#ED1C24"/>
<path style="mix-blend-mode:multiply" opacity="0.4" d="M8.26367 33.9752C10.7907 34.754 13.7881 35.2821 16.8081 35.4276C17.948 35.4829 20.6503 34.2515 20.9348 33.7495C11.7803 33.2897 8.26367 33.9752 8.26367 33.9752Z" fill="url(#paint8_linear_2919_2785)"/>
<g style="mix-blend-mode:multiply">
<path d="M2.29618 27.2783C2.29618 27.2783 1.92906 28.2288 2.73634 31.1817L2.60269 28.9107C2.58754 28.6406 2.54534 28.3728 2.47675 28.1111C2.36923 27.7072 2.29618 27.2783 2.29618 27.2783Z" fill="black"/>
</g>
</g>
<defs>
<linearGradient id="paint0_linear_2919_2785" x1="32.0865" y1="8.52179" x2="33.1178" y2="11.9398" gradientUnits="userSpaceOnUse">
<stop stop-color="white"/>
<stop offset="1" stop-color="white"/>
</linearGradient>
<linearGradient id="paint1_linear_2919_2785" x1="48.0062" y1="13.7991" x2="48.0062" y2="11.8626" gradientUnits="userSpaceOnUse">
<stop stop-color="white"/>
<stop offset="1" stop-color="white"/>
</linearGradient>
<linearGradient id="paint2_linear_2919_2785" x1="27.5183" y1="28.6789" x2="25.3483" y2="24.2023" gradientUnits="userSpaceOnUse">
<stop stop-color="white"/>
<stop offset="0.89" stop-color="white"/>
<stop offset="1" stop-color="white"/>
</linearGradient>
<linearGradient id="paint3_linear_2919_2785" x1="49.5121" y1="19.8001" x2="47.5179" y2="16.056" gradientUnits="userSpaceOnUse">
<stop offset="0.27" stop-color="white"/>
<stop offset="1" stop-color="white"/>
</linearGradient>
<linearGradient id="paint4_linear_2919_2785" x1="38.502" y1="24.7552" x2="40.3482" y2="27.7224" gradientUnits="userSpaceOnUse">
<stop/>
<stop offset="1"/>
</linearGradient>
<linearGradient id="paint5_linear_2919_2785" x1="39.2681" y1="22.7351" x2="39.2681" y2="16.9326" gradientUnits="userSpaceOnUse">
<stop stop-color="white"/>
<stop offset="1" stop-color="white"/>
</linearGradient>
<linearGradient id="paint6_linear_2919_2785" x1="23.144" y1="19.7718" x2="22.4383" y2="13.9658" gradientUnits="userSpaceOnUse">
<stop stop-color="white"/>
<stop offset="1" stop-color="white"/>
</linearGradient>
<linearGradient id="paint7_linear_2919_2785" x1="38.238" y1="17.4236" x2="36.6644" y2="14.7107" gradientUnits="userSpaceOnUse">
<stop stop-color="white"/>
<stop offset="1" stop-color="white"/>
</linearGradient>
<linearGradient id="paint8_linear_2919_2785" x1="14.5847" y1="33.5107" x2="14.6661" y2="35.4639" gradientUnits="userSpaceOnUse">
<stop/>
<stop offset="1"/>
</linearGradient>
<clipPath id="clip0_2919_2785">
<rect width="56.0926" height="27.4119" fill="white" transform="translate(0.953613 10)"/>
</clipPath>
</defs>
</svg>
