<svg width="42" height="42" viewBox="0 0 42 42" fill="none" xmlns="http://www.w3.org/2000/svg">
<g clip-path="url(#clip0_2919_2636)">
<path d="M26.3412 42.0002H15.6564C14.4733 42.0002 13.686 40.5271 14.176 39.2302L19.4609 25.2413C20.0365 23.7181 21.8302 23.7119 22.4156 25.2266L27.8155 39.2155C28.3172 40.5142 27.5299 42.0002 26.3412 42.0002Z" fill="#C47526"/>
<path d="M18.4907 38.6523H23.5071C23.9353 38.6523 24.1494 38.8665 24.1494 39.2947C24.1494 39.7229 23.9353 39.937 23.5071 39.937H18.4907C18.0625 39.937 17.8484 39.7229 17.8484 39.2947C17.8484 38.8665 18.0625 38.6523 18.4907 38.6523Z" fill="#AA4900"/>
<path d="M23.1811 1.35663L26.9709 9.0353C27.1458 9.38947 27.4043 9.69574 27.724 9.92766C28.0438 10.1596 28.4152 10.3102 28.8061 10.3665L37.2795 11.5979C39.2756 11.8879 40.0721 14.341 38.6253 15.7486L32.4937 21.7248C32.2112 22.0002 31.9999 22.3402 31.878 22.7154C31.7561 23.0907 31.7272 23.4899 31.7939 23.8788L33.2413 32.3209C33.582 34.3085 31.496 35.8244 29.7103 34.886L22.1313 30.8992C21.7823 30.7158 21.3939 30.62 20.9996 30.62C20.6053 30.62 20.2169 30.7158 19.8679 30.8992L12.2877 34.8835C10.5026 35.8219 8.41592 34.306 8.75667 32.3185L10.2041 23.8763C10.2708 23.4875 10.2419 23.0882 10.12 22.713C9.99807 22.3377 9.78675 21.9978 9.50422 21.7224L3.37266 15.7456C1.92832 14.3386 2.72543 11.8848 4.71851 11.5949L13.1918 10.3634C13.5828 10.3071 13.9542 10.1565 14.274 9.9246C14.5937 9.69268 14.8522 9.38641 15.0271 9.03224L18.8169 1.35357C19.7094 -0.4517 22.2886 -0.4517 23.1811 1.35663Z" fill="#FFE000"/>
<path d="M22.2174 10.8561L23.7516 13.9699C23.8492 14.1675 23.9934 14.3384 24.1716 14.4679C24.3499 14.5974 24.557 14.6816 24.7751 14.7132L28.2113 15.2124C28.4623 15.2489 28.698 15.3549 28.8919 15.5184C29.0858 15.6819 29.23 15.8964 29.3084 16.1376C29.3867 16.3788 29.396 16.6372 29.3352 16.8834C29.2744 17.1296 29.146 17.3539 28.9644 17.5309L26.4782 19.9547C26.3204 20.1085 26.2023 20.2985 26.1342 20.5081C26.0661 20.7177 26.05 20.9408 26.0873 21.158L26.677 24.5801C26.7198 24.8301 26.6919 25.087 26.5963 25.322C26.5007 25.5569 26.3413 25.7603 26.1361 25.9094C25.9309 26.0585 25.6882 26.1471 25.4352 26.1654C25.1823 26.1837 24.9292 26.1308 24.7047 26.0128L21.6313 24.3966C21.4362 24.294 21.2192 24.2404 20.9988 24.2404C20.7784 24.2404 20.5613 24.294 20.3662 24.3966L17.2928 26.0122C17.0684 26.1302 16.8154 26.183 16.5625 26.1647C16.3096 26.1465 16.0669 26.0579 15.8617 25.9089C15.6566 25.7599 15.4972 25.5565 15.4015 25.3217C15.3059 25.0869 15.2778 24.83 15.3205 24.5801L15.9072 21.158C15.9445 20.9408 15.9284 20.7177 15.8603 20.5081C15.7922 20.2985 15.6741 20.1085 15.5163 19.9547L13.0301 17.5309C12.8485 17.3539 12.7201 17.1296 12.6593 16.8834C12.5985 16.6372 12.6078 16.3788 12.6861 16.1376C12.7645 15.8964 12.9087 15.6819 13.1026 15.5184C13.2965 15.3549 13.5322 15.2489 13.7832 15.2124L17.2194 14.7132C17.438 14.682 17.6457 14.598 17.8246 14.4685C18.0034 14.339 18.148 14.1679 18.2459 13.9699L19.7826 10.8561C19.8952 10.6295 20.0688 10.4388 20.2839 10.3055C20.4989 10.1722 20.747 10.1016 21 10.1016C21.253 10.1016 21.5011 10.1722 21.7161 10.3055C21.9312 10.4388 22.1048 10.6295 22.2174 10.8561Z" fill="#FFFF00"/>
</g>
<defs>
<clipPath id="clip0_2919_2636">
<rect width="42" height="42" fill="white"/>
</clipPath>
</defs>
</svg>
