<svg width="42" height="42" viewBox="0 0 42 42" fill="none" xmlns="http://www.w3.org/2000/svg">
<g clip-path="url(#clip0_2919_2669)">
<path d="M14.6545 6.28662C14.6545 7.11219 14.8171 7.92967 15.1331 8.6924C15.449 9.45513 15.9121 10.1482 16.4958 10.7319C17.0796 11.3157 17.7726 11.7788 18.5354 12.0947C19.2981 12.4106 20.1156 12.5732 20.9412 12.5732C21.7667 12.5732 22.5842 12.4106 23.3469 12.0947C24.1097 11.7788 24.8027 11.3157 25.3865 10.7319C25.9702 10.1482 26.4333 9.45513 26.7492 8.6924C27.0652 7.92967 27.2278 7.11219 27.2278 6.28662C27.2278 5.46105 27.0652 4.64356 26.7492 3.88083C26.4333 3.1181 25.9702 2.42507 25.3865 1.84131C24.8027 1.25754 24.1097 0.794472 23.3469 0.47854C22.5842 0.162608 21.7667 0 20.9412 0C20.1156 0 19.2981 0.162608 18.5354 0.47854C17.7726 0.794472 17.0796 1.25754 16.4958 1.84131C15.9121 2.42507 15.449 3.1181 15.1331 3.88083C14.8171 4.64356 14.6545 5.46105 14.6545 6.28662Z" fill="#FFA451"/>
<path d="M20.9395 0.000976563C20.2389 0.000976563 19.5659 0.120969 18.9349 0.332425C18.5934 1.06077 19.3276 2.80109 21.5034 3.0201C26.3098 3.0201 25.0059 6.93706 22.0455 8.25279C20.2187 9.06505 17.0813 7.28865 14.7368 7.26096C15.2076 10.2692 17.8004 12.5725 20.9404 12.5725C21.766 12.5728 22.5837 12.4103 23.3466 12.0946C24.1095 11.7788 24.8028 11.3159 25.3868 10.7322C25.9708 10.1485 26.4341 9.45548 26.7502 8.69273C27.0664 7.92999 27.2293 7.11243 27.2295 6.28675C27.2284 4.61928 26.5652 3.02047 25.3857 1.84178C24.2062 0.663092 22.607 0.000976181 20.9395 0.000976563Z" fill="#FF8530"/>
<path d="M8.93018 14.5395C8.93018 16.2069 9.59251 17.8059 10.7715 18.9849C11.9505 20.1638 13.5495 20.8262 15.2168 20.8262C16.8841 20.8262 18.4831 20.1638 19.6621 18.9849C20.8411 17.8059 21.5034 16.2069 21.5034 14.5395C21.5034 12.8722 20.8411 11.2732 19.6621 10.0942C18.4831 8.91527 16.8841 8.25293 15.2168 8.25293C13.5495 8.25293 11.9505 8.91527 10.7715 10.0942C9.59251 11.2732 8.93018 12.8722 8.93018 14.5395Z" fill="#9FE283"/>
<path d="M17.3348 8.62695C19.1263 10.8019 19.4972 14.1978 18.6489 15.8953C17.1108 18.6627 14.7361 18.9673 10.3081 18.4605C10.8957 19.1991 11.6425 19.7956 12.4927 20.2055C13.3429 20.6153 14.2747 20.828 15.2186 20.8276C16.0442 20.8276 16.8618 20.6649 17.6245 20.3489C18.3872 20.0328 19.0802 19.5696 19.6639 18.9856C20.2475 18.4017 20.7104 17.7084 21.0261 16.9455C21.3417 16.1826 21.504 15.365 21.5035 14.5393C21.5035 11.8122 19.7624 9.49627 17.3348 8.62695Z" fill="#6CB23F"/>
<path d="M20.4966 14.5395C20.4966 16.2069 21.1589 17.8059 22.3379 18.9849C23.5169 20.1638 25.1159 20.8262 26.7832 20.8262C28.4505 20.8262 30.0495 20.1638 31.2285 18.9849C32.4075 17.8059 33.0698 16.2069 33.0698 14.5395C33.0698 12.8722 32.4075 11.2732 31.2285 10.0942C30.0495 8.91527 28.4505 8.25293 26.7832 8.25293C25.1159 8.25293 23.5169 8.91527 22.3379 10.0942C21.1589 11.2732 20.4966 12.8722 20.4966 14.5395Z" fill="#FF6F56"/>
<path d="M30.2705 9.31055C31.217 11.3647 31.2447 13.7402 30.1673 15.8942C28.6778 18.8747 25.475 18.7463 21.8315 18.404C22.4177 19.1584 23.1686 19.7689 24.0267 20.1888C24.8849 20.6086 25.8277 20.8268 26.7831 20.8265C28.132 20.8261 29.445 20.3918 30.5281 19.5879C31.6112 18.7839 32.407 17.6529 32.7979 16.3619C33.1889 15.071 33.1542 13.6885 32.6991 12.4187C32.244 11.1489 31.3925 10.0592 30.2705 9.31055Z" fill="#F94E41"/>
<path d="M13.0225 21.5146L29.2307 21.5205C29.7569 21.5205 30.0254 21.8881 29.8299 22.342L21.7559 41.6617C21.5621 42.1148 20.6777 42.1148 20.4855 41.6617L12.4208 22.3361C12.2287 21.8822 12.4964 21.5146 13.0225 21.5146Z" fill="#FFDE5D"/>
<path d="M18.7084 22.1258L19.0919 22.5085L19.4762 22.1258H18.7084ZM18.8712 22.7317L18.8855 22.7157L18.2947 22.1258H18.2637L18.8712 22.7317ZM22.4366 22.1275L22.8209 22.5085L23.2027 22.1275H22.4366ZM22.6002 22.7308L22.6145 22.7157L22.0237 22.1258L21.9927 22.1275L22.6002 22.7308ZM26.56 22.9314L26.5465 22.9465L26.5356 22.9381L26.5491 22.9213L26.56 22.9314ZM28.1912 24.5945L26.7496 23.1554L26.7664 23.1395L28.2071 24.5786L28.1912 24.5945ZM26.7546 22.7157L26.7655 22.7266L27.3638 22.1292H27.3429L26.7546 22.7157ZM19.2991 22.7157L19.3092 22.7266L19.9092 22.1258H19.8899L19.2991 22.7157ZM19.1028 22.9322L19.0877 22.9457L19.0793 22.9364L19.0936 22.9222L19.1028 22.9322ZM26.3259 22.7317L26.3401 22.7157L25.7527 22.1275H25.7234L26.3259 22.7317ZM26.1673 22.1275L26.5491 22.5085L26.9292 22.1275H26.1673ZM15.1422 22.7317L15.1573 22.7157L14.5666 22.125H14.5347L15.1422 22.7317ZM14.9794 22.125L15.3645 22.5085L15.7489 22.125H14.9794ZM23.0281 22.7157L23.0382 22.7266L23.6365 22.1275H23.6172L23.0281 22.7157ZM22.831 22.9347L22.8159 22.9507L22.8058 22.9406L22.8209 22.9247L22.831 22.9347ZM15.5718 22.7157L15.5819 22.7266L16.1835 22.125H16.1625L15.5718 22.7157ZM15.3746 22.9331L15.3595 22.9498L15.3486 22.9389L15.3637 22.9222L15.3746 22.9331Z" fill="#E3A478"/>
<path d="M29.2685 21.3958L13.0594 21.3916C13.0082 21.3916 12.9621 21.3975 12.9176 21.4033C12.488 21.4654 12.2832 21.8028 12.4595 22.2131L13.114 23.7847C16.5753 23.6899 20.4654 23.001 23.2966 24.6994C26.3182 26.8148 24.504 32.2556 22.6924 34.9743C21.8449 36.2455 20.4402 37.1811 18.8971 37.641L19.6901 39.5424L19.9603 40.1936L20.5225 41.5395C20.544 41.5871 20.5739 41.6306 20.6106 41.6679L20.6542 41.7073C20.7283 41.7696 20.8151 41.8152 20.9085 41.8407H20.9101C21.1157 41.8995 21.3565 41.886 21.5411 41.7937C21.5437 41.7921 21.5453 41.7887 21.5504 41.787C21.6023 41.7606 21.6501 41.7267 21.6922 41.6863C21.7356 41.6448 21.7702 41.5948 21.7937 41.5395L23.2362 38.0907L23.3587 37.7987L23.4677 37.5369L23.7648 36.8237L26.1453 31.1312L26.4424 30.4196L26.533 30.2014L26.6555 29.9094L27.6323 27.5725L27.7413 27.3107L28.7315 24.9444L29.1192 24.0147L29.8693 22.2173C30.0615 21.7633 29.7946 21.3958 29.2685 21.3958Z" fill="#FCD345"/>
<path d="M29.6849 23.3686H12.5679C11.6197 23.3686 10.2964 20.4611 10.2964 20.4611C10.2964 20.0272 10.6983 19.674 11.1942 19.6748H31.0602C31.5553 19.6748 31.958 20.0264 31.958 20.4611C31.958 20.4611 30.6901 23.3686 29.6849 23.3686Z" fill="#FFDE5D"/>
<path d="M31.0601 19.6758H30.2965C30.3007 19.706 30.3066 19.7354 30.3066 19.7672C30.3066 19.7672 29.0387 22.6731 28.0334 22.6731H11.6045C11.9267 23.075 12.2666 23.3687 12.5678 23.3687H29.6848C30.6901 23.3687 31.958 20.4612 31.958 20.4612C31.958 20.0274 31.5552 19.6758 31.0601 19.6758Z" fill="#FCD345"/>
</g>
<defs>
<clipPath id="clip0_2919_2669">
<rect width="42" height="42" fill="white"/>
</clipPath>
</defs>
</svg>
