<svg width="42" height="42" viewBox="0 0 42 42" fill="none" xmlns="http://www.w3.org/2000/svg">
<path d="M33.8507 9.02148H8.81435C7.98139 9.02148 7.24319 9.3361 6.68172 9.83028C5.53272 10.8414 5.57584 12.459 6.15341 13.961C6.18374 14.0396 17.6287 33.0557 18.8161 35.059C17.8225 36.876 16.7943 40.4751 16.7901 40.4865C16.6361 40.8869 16.6247 41.318 16.9308 41.5876C17.0805 41.7194 17.2771 41.8032 17.4994 41.8032H25.0846C25.7044 41.8032 26.1469 41.1366 25.8418 40.5978C25.8247 40.5675 24.7629 36.9163 23.7471 35.0651C24.9041 33.0813 36.5718 13.7549 36.6907 13.5445C37.8359 11.5218 36.1752 9.02148 33.8507 9.02148Z" fill="#DAEFF7"/>
<path fill-rule="evenodd" clip-rule="evenodd" d="M21.5 41.8032H25.0845C25.7043 41.8032 26.1468 41.1366 25.8417 40.5978C25.8397 40.5943 25.8236 40.5418 25.7951 40.4489C25.5783 39.7428 24.6447 36.7011 23.7469 35.0651C24.5446 33.6975 30.3369 24.0887 33.8976 18.1818C35.5022 15.5199 36.6536 13.6099 36.6906 13.5445C37.8358 11.5218 36.1751 9.02148 33.8505 9.02148H21.5V41.8032Z" fill="#CBE3ED"/>
<path d="M37.812 10.9065C38.6886 10.6193 39.191 9.68038 38.932 8.78871C38.6675 7.87793 37.7059 7.34886 36.7951 7.6134L36.6563 7.65363L36.6865 7.51231C36.8851 6.58493 36.2887 5.66359 35.3613 5.46494C34.4339 5.26629 33.5126 5.86275 33.3139 6.79012L33.3049 6.83237L33.2727 6.8032C32.5686 6.16751 31.4728 6.22334 30.8371 6.92742C30.2145 7.61692 30.2572 8.68109 30.92 9.3218C30.0435 9.60897 29.541 10.5479 29.8001 11.4396C30.0646 12.3504 31.0262 12.8794 31.9369 12.6149L32.0757 12.5747L32.0456 12.716C31.8469 13.6434 32.4434 14.5647 33.3713 14.7634C34.2986 14.962 35.22 14.3655 35.4186 13.4382L35.4277 13.3959L35.4599 13.4251C36.164 14.0608 37.2598 14.005 37.8955 13.3009C38.5176 12.6114 38.4748 11.5472 37.812 10.9065Z" fill="#C30D23"/>
<path d="M33.1514 10.113C33.1514 10.4351 33.2793 10.744 33.5071 10.9718C33.7349 11.1996 34.0438 11.3275 34.3659 11.3275C34.688 11.3275 34.9969 11.1996 35.2247 10.9718C35.4525 10.744 35.5805 10.4351 35.5805 10.113C35.5805 9.79086 35.4525 9.48194 35.2247 9.25417C34.9969 9.0264 34.688 8.89844 34.3659 8.89844C34.0438 8.89844 33.7349 9.0264 33.5071 9.25417C33.2793 9.48194 33.1514 9.79086 33.1514 10.113Z" fill="#E29C4E"/>
<path d="M28.9957 12.9122C30.2142 12.4616 30.872 11.1133 30.4601 9.87108C30.0392 8.60273 28.6577 7.90921 27.3893 8.33015L27.1962 8.39452L27.2314 8.19386C27.4618 6.87773 26.5731 5.61239 25.257 5.38206C23.9409 5.15172 22.6755 6.04037 22.4452 7.3565L22.4346 7.41635L22.3878 7.37712C21.3629 6.51965 19.823 6.65644 18.9655 7.68139C18.1256 8.68521 18.2418 10.1809 19.2094 11.0479C17.9909 11.4985 17.333 12.8468 17.7449 14.089C18.1659 15.3574 19.5474 16.0509 20.8157 15.63L21.0088 15.5656L20.9736 15.7663C20.7433 17.0824 21.632 18.3477 22.9481 18.5781C24.2642 18.8084 25.5296 17.9197 25.7599 16.6036L25.7705 16.5438L25.8172 16.583C26.8422 17.4405 28.3821 17.3037 29.2396 16.2787C30.0794 15.2754 29.9633 13.7792 28.9957 12.9122Z" fill="#C30D23"/>
<path d="M22.2163 11.9816C22.2163 12.4818 22.415 12.9615 22.7687 13.3152C23.1224 13.6689 23.6021 13.8676 24.1022 13.8676C24.6024 13.8676 25.0821 13.6689 25.4358 13.3152C25.7895 12.9615 25.9882 12.4818 25.9882 11.9816C25.9882 11.4815 25.7895 11.0018 25.4358 10.6481C25.0821 10.2944 24.6024 10.0957 24.1022 10.0957C23.6021 10.0957 23.1224 10.2944 22.7687 10.6481C22.415 11.0018 22.2163 11.4815 22.2163 11.9816Z" fill="#E29C4E"/>
<path d="M17.7447 7.34564C18.9115 6.1316 18.917 4.18733 17.7347 2.97128C16.5277 1.72958 14.524 1.70142 13.2823 2.90892L13.0932 3.09298L13.0208 2.83901C12.5456 1.17386 10.7944 0.200211 9.12926 0.674964C7.46411 1.15022 6.49046 2.90137 6.96522 4.56653L6.98684 4.64247L6.9104 4.62336C5.23066 4.20191 3.51169 5.23188 3.09075 6.91162C2.67836 8.55666 3.65905 10.2359 5.27743 10.7001C4.11066 11.9141 4.10513 13.8584 5.28749 15.0745C6.49449 16.3162 8.4981 16.3443 9.7398 15.1368L9.9289 14.9527L10.0013 15.2067C10.4766 16.8719 12.2277 17.8455 13.8929 17.3708C15.558 16.8955 16.5317 15.1444 16.0569 13.4792L16.0353 13.4033L16.1117 13.4224C17.7915 13.8433 19.5105 12.8138 19.9314 11.1341C20.3433 9.48957 19.3626 7.81033 17.7447 7.34564Z" fill="#C30D23"/>
<path d="M9.06689 9.0223C9.06689 9.67053 9.32441 10.2922 9.78278 10.7506C10.2411 11.209 10.8628 11.4665 11.5111 11.4665C12.1593 11.4665 12.781 11.209 13.2394 10.7506C13.6977 10.2922 13.9552 9.67053 13.9552 9.0223C13.9552 8.37406 13.6977 7.75238 13.2394 7.29401C12.781 6.83564 12.1593 6.57812 11.5111 6.57812C10.8628 6.57812 10.2411 6.83564 9.78278 7.29401C9.32441 7.75238 9.06689 8.37406 9.06689 9.0223Z" fill="#E29C4E"/>
<path d="M25.3122 34.7663C25.3122 35.1626 24.9818 35.4599 24.6185 35.4599H16.7896C16.3932 35.4599 16.0959 35.1296 16.0959 34.7663V33.8744C16.0959 33.478 16.4263 33.1807 16.7896 33.1807H24.6185C25.0149 33.1807 25.3122 33.511 25.3122 33.8744V34.7663Z" fill="#E83828"/>
<path d="M24.6843 34.3701L28.9456 30.7695V36.9467L24.6843 34.3701Z" fill="#C30D23"/>
<path d="M23.0327 34.8977L27.294 31.3301V37.4742L23.0327 34.8977Z" fill="#E83828"/>
</svg>
