<svg width="42" height="42" viewBox="0 0 42 42" fill="none" xmlns="http://www.w3.org/2000/svg">
<g clip-path="url(#clip0_2919_2643)">
<path d="M37.5226 6.26884C36.944 6.26817 36.3711 6.38186 35.8366 6.60337C35.3021 6.82487 34.8167 7.14983 34.4083 7.55956L34.3996 7.55096C35.0741 6.89128 35.5188 6.03244 35.6683 5.10095C35.8178 4.16946 35.6642 3.21458 35.23 2.377C34.7959 1.53941 34.1042 0.863395 33.2569 0.448553C32.4096 0.0337099 31.4515 -0.0980279 30.5237 0.0727472C29.5958 0.243522 28.7474 0.70778 28.1033 1.39712C27.4593 2.08647 27.0536 2.96445 26.9462 3.90172C26.8387 4.83899 27.0352 5.78599 27.5065 6.6032C27.9779 7.42042 28.6993 8.06463 29.5644 8.44094L25.0327 12.9744L28.9663 16.9081L33.4709 12.4034C33.7834 13.135 34.2882 13.7682 34.9317 14.2359C35.5751 14.7037 36.3332 14.9884 37.1255 15.0599C37.9177 15.1314 38.7146 14.987 39.4314 14.642C40.1481 14.297 40.7581 13.7644 41.1965 13.1006C41.6349 12.4368 41.8854 11.6667 41.9212 10.872C41.9571 10.0773 41.7772 9.28779 41.4004 8.58719C41.0236 7.8866 40.4642 7.30112 39.7814 6.89292C39.0986 6.48473 38.3181 6.26907 37.5226 6.26884Z" fill="#EFEFEF"/>
<path d="M16.5613 25.5118C22.1249 31.0754 24.3228 37.8984 21.4703 40.7503C21.3026 40.9176 21.1197 41.0691 20.9239 41.2027C27.2153 37.4362 31.4273 30.5554 31.4273 22.6901C31.4288 20.7417 31.1664 18.8021 30.6474 16.9242C30.2295 15.4256 29.4111 14.0691 28.2802 13.0006C27.1494 11.9321 25.7487 11.192 24.2288 10.8597C22.7054 10.5262 21.1503 10.3584 19.5908 10.3594C11.7045 10.3594 4.80778 14.5942 1.0481 20.9132C1.13467 20.8058 1.227 20.7032 1.32468 20.6058C4.17532 17.7509 10.9977 19.9482 16.5613 25.5118Z" fill="#F7A46B"/>
<path d="M21.4703 40.7499C24.3228 37.8974 22.1255 31.0744 16.5619 25.5108C10.9982 19.9472 4.17525 17.7505 1.32215 20.603C1.22447 20.7004 1.13214 20.803 1.04557 20.9103C0.815285 21.2975 0.596478 21.6923 0.389143 22.0947C-0.813684 25.4266 1.48257 31.0916 6.22811 35.8403C11.1808 40.7929 17.131 43.0781 20.3904 41.5084C20.5686 41.4084 20.7454 41.3059 20.9208 41.201C21.1175 41.068 21.3015 40.917 21.4703 40.7499Z" fill="#FFCB41"/>
<path d="M21.4703 40.7499C24.3228 37.8974 22.1255 31.0744 16.5619 25.5108C10.9982 19.9472 4.17525 17.7505 1.32215 20.603C1.22447 20.7004 1.13214 20.803 1.04557 20.9103C0.815285 21.2975 0.596478 21.6923 0.389143 22.0947C-0.813684 25.4266 1.48257 31.0916 6.22811 35.8403C11.1808 40.7929 17.131 43.0781 20.3904 41.5084C20.5686 41.4084 20.7454 41.3059 20.9208 41.201C21.1175 41.068 21.3015 40.917 21.4703 40.7499Z" fill="#EF6E69"/>
<path d="M14.2829 34.3378C15.2005 33.4207 14.4937 31.2265 12.7045 29.4373C10.9153 27.6482 8.72111 26.9413 7.80409 27.859C7.7726 27.8905 7.74285 27.9238 7.71497 27.9585C7.6408 28.0815 7.57033 28.2085 7.50354 28.3396C7.11694 29.4109 7.8551 31.2327 9.38184 32.76C10.9743 34.3525 12.8852 35.0876 13.9362 34.5824C13.9936 34.5504 14.0504 34.5174 14.1065 34.4834C14.1697 34.4405 14.2287 34.3917 14.2829 34.3378Z" fill="#F9B180"/>
<path d="M10.4574 15.2425C10.3952 15.2425 10.3345 15.2236 10.2833 15.1884C10.2321 15.1531 10.1927 15.1032 10.1705 15.0451C10.1482 14.9871 10.1441 14.9236 10.1587 14.8632C10.1733 14.8027 10.2059 14.7481 10.2521 14.7066C10.375 14.5953 13.3566 11.9807 18.2859 12.355C18.3674 12.3612 18.4431 12.3995 18.4964 12.4615C18.5496 12.5235 18.5761 12.6042 18.5699 12.6857C18.5637 12.7672 18.5254 12.8429 18.4634 12.8961C18.4013 12.9494 18.3207 12.9758 18.2392 12.9696C13.5816 12.615 10.6903 15.1411 10.6615 15.1663C10.605 15.2158 10.5324 15.2429 10.4574 15.2425Z" fill="white"/>
</g>
<defs>
<clipPath id="clip0_2919_2643">
<rect width="42" height="42" fill="white"/>
</clipPath>
</defs>
</svg>
