<?xml version="1.0" encoding="UTF-8"?>
<svg width="1440px" height="900px" viewBox="0 0 1440 900" version="1.1" xmlns="http://www.w3.org/2000/svg" xmlns:xlink="http://www.w3.org/1999/xlink">
    <title>BG_登录页面</title>
    <defs>
        <filter id="filter-1">
            <feColorMatrix in="SourceGraphic" type="matrix" values="0 0 0 0 0.833841 0 0 0 0 0.941759 0 0 0 0 1.000000 0 0 0 1.000000 0"></feColorMatrix>
        </filter>
        <filter id="filter-2">
            <feColorMatrix in="SourceGraphic" type="matrix" values="0 0 0 0 0.733280 0 0 0 0 0.862005 0 0 0 0 0.998302 0 0 0 1.000000 0"></feColorMatrix>
        </filter>
    </defs>
    <g id="BG_登录页面" stroke="none" stroke-width="1" fill="none" fill-rule="evenodd">
        <rect id="矩形" fill="#EFF6FE" x="-34" y="-24" width="1496" height="947"></rect>
        <circle id="椭圆形备份-122" fill="#DCEDFF" cx="1152" cy="179" r="84"></circle>
        <circle id="椭圆形备份-123" fill="#DCEDFF" cx="107" cy="636" r="52"></circle>
        <g filter="url(#filter-1)" id="编组备份-2">
            <g transform="translate(1129.000000, 639.000000)">
                <circle id="椭圆形" fill="#1764AB" cx="4" cy="43" r="4"></circle>
                <circle id="椭圆形备份-88" fill="#1764AB" cx="4" cy="4" r="4"></circle>
                <circle id="椭圆形备份-44" fill="#1764AB" cx="4" cy="95" r="4"></circle>
                <circle id="椭圆形备份-22" fill="#1764AB" cx="4" cy="69" r="4"></circle>
                <circle id="椭圆形备份-89" fill="#1764AB" cx="4" cy="30" r="4"></circle>
                <circle id="椭圆形备份-45" fill="#1764AB" cx="4" cy="121" r="4"></circle>
                <circle id="椭圆形备份-11" fill="#1764AB" cx="4" cy="56" r="4"></circle>
                <circle id="椭圆形备份-90" fill="#1764AB" cx="4" cy="17" r="4"></circle>
                <circle id="椭圆形备份-46" fill="#1764AB" cx="4" cy="108" r="4"></circle>
                <circle id="椭圆形备份-23" fill="#1764AB" cx="4" cy="82" r="4"></circle>
                <circle id="椭圆形备份-47" fill="#1764AB" cx="4" cy="134" r="4"></circle>
                <circle id="椭圆形备份" fill="#1764AB" cx="17" cy="43" r="4"></circle>
                <circle id="椭圆形备份-91" fill="#1764AB" cx="17" cy="4" r="4"></circle>
                <circle id="椭圆形备份-48" fill="#1764AB" cx="17" cy="95" r="4"></circle>
                <circle id="椭圆形备份-24" fill="#1764AB" cx="17" cy="69" r="4"></circle>
                <circle id="椭圆形备份-92" fill="#1764AB" cx="17" cy="30" r="4"></circle>
                <circle id="椭圆形备份-49" fill="#1764AB" cx="17" cy="121" r="4"></circle>
                <circle id="椭圆形备份-12" fill="#1764AB" cx="17" cy="56" r="4"></circle>
                <circle id="椭圆形备份-93" fill="#1764AB" cx="17" cy="17" r="4"></circle>
                <circle id="椭圆形备份-50" fill="#1764AB" cx="17" cy="108" r="4"></circle>
                <circle id="椭圆形备份-25" fill="#1764AB" cx="17" cy="82" r="4"></circle>
                <circle id="椭圆形备份-51" fill="#1764AB" cx="17" cy="134" r="4"></circle>
                <circle id="椭圆形备份-5" fill="#1764AB" cx="69" cy="43" r="4"></circle>
                <circle id="椭圆形备份-94" fill="#1764AB" cx="69" cy="4" r="4"></circle>
                <circle id="椭圆形备份-52" fill="#1764AB" cx="69" cy="95" r="4"></circle>
                <circle id="椭圆形备份-26" fill="#1764AB" cx="69" cy="69" r="4"></circle>
                <circle id="椭圆形备份-95" fill="#1764AB" cx="69" cy="30" r="4"></circle>
                <circle id="椭圆形备份-53" fill="#1764AB" cx="69" cy="121" r="4"></circle>
                <circle id="椭圆形备份-13" fill="#1764AB" cx="69" cy="56" r="4"></circle>
                <circle id="椭圆形备份-96" fill="#1764AB" cx="69" cy="17" r="4"></circle>
                <circle id="椭圆形备份-54" fill="#1764AB" cx="69" cy="108" r="4"></circle>
                <circle id="椭圆形备份-27" fill="#1764AB" cx="69" cy="82" r="4"></circle>
                <circle id="椭圆形备份-55" fill="#1764AB" cx="69" cy="134" r="4"></circle>
                <circle id="椭圆形备份-2" fill="#1764AB" cx="30" cy="43" r="4"></circle>
                <circle id="椭圆形备份-97" fill="#1764AB" cx="30" cy="4" r="4"></circle>
                <circle id="椭圆形备份-56" fill="#1764AB" cx="30" cy="95" r="4"></circle>
                <circle id="椭圆形备份-28" fill="#1764AB" cx="30" cy="69" r="4"></circle>
                <circle id="椭圆形备份-98" fill="#1764AB" cx="30" cy="30" r="4"></circle>
                <circle id="椭圆形备份-57" fill="#1764AB" cx="30" cy="121" r="4"></circle>
                <circle id="椭圆形备份-14" fill="#1764AB" cx="30" cy="56" r="4"></circle>
                <circle id="椭圆形备份-99" fill="#1764AB" cx="30" cy="17" r="4"></circle>
                <circle id="椭圆形备份-58" fill="#1764AB" cx="30" cy="108" r="4"></circle>
                <circle id="椭圆形备份-29" fill="#1764AB" cx="30" cy="82" r="4"></circle>
                <circle id="椭圆形备份-59" fill="#1764AB" cx="30" cy="134" r="4"></circle>
                <circle id="椭圆形备份-6" fill="#1764AB" cx="82" cy="43" r="4"></circle>
                <circle id="椭圆形备份-100" fill="#1764AB" cx="82" cy="4" r="4"></circle>
                <circle id="椭圆形备份-60" fill="#1764AB" cx="82" cy="95" r="4"></circle>
                <circle id="椭圆形备份-30" fill="#1764AB" cx="82" cy="69" r="4"></circle>
                <circle id="椭圆形备份-101" fill="#1764AB" cx="82" cy="30" r="4"></circle>
                <circle id="椭圆形备份-61" fill="#1764AB" cx="82" cy="121" r="4"></circle>
                <circle id="椭圆形备份-15" fill="#1764AB" cx="82" cy="56" r="4"></circle>
                <circle id="椭圆形备份-102" fill="#1764AB" cx="82" cy="17" r="4"></circle>
                <circle id="椭圆形备份-62" fill="#1764AB" cx="82" cy="108" r="4"></circle>
                <circle id="椭圆形备份-31" fill="#1764AB" cx="82" cy="82" r="4"></circle>
                <circle id="椭圆形备份-63" fill="#1764AB" cx="82" cy="134" r="4"></circle>
                <circle id="椭圆形备份-3" fill="#1764AB" cx="43" cy="43" r="4"></circle>
                <circle id="椭圆形备份-103" fill="#1764AB" cx="43" cy="4" r="4"></circle>
                <circle id="椭圆形备份-64" fill="#1764AB" cx="43" cy="95" r="4"></circle>
                <circle id="椭圆形备份-32" fill="#1764AB" cx="43" cy="69" r="4"></circle>
                <circle id="椭圆形备份-104" fill="#1764AB" cx="43" cy="30" r="4"></circle>
                <circle id="椭圆形备份-65" fill="#1764AB" cx="43" cy="121" r="4"></circle>
                <circle id="椭圆形备份-16" fill="#1764AB" cx="43" cy="56" r="4"></circle>
                <circle id="椭圆形备份-105" fill="#1764AB" cx="43" cy="17" r="4"></circle>
                <circle id="椭圆形备份-66" fill="#1764AB" cx="43" cy="108" r="4"></circle>
                <circle id="椭圆形备份-33" fill="#1764AB" cx="43" cy="82" r="4"></circle>
                <circle id="椭圆形备份-67" fill="#1764AB" cx="43" cy="134" r="4"></circle>
                <circle id="椭圆形备份-7" fill="#1764AB" cx="108" cy="43" r="4"></circle>
                <circle id="椭圆形备份-106" fill="#1764AB" cx="108" cy="4" r="4"></circle>
                <circle id="椭圆形备份-68" fill="#1764AB" cx="108" cy="95" r="4"></circle>
                <circle id="椭圆形备份-34" fill="#1764AB" cx="108" cy="69" r="4"></circle>
                <circle id="椭圆形备份-107" fill="#1764AB" cx="108" cy="30" r="4"></circle>
                <circle id="椭圆形备份-69" fill="#1764AB" cx="108" cy="121" r="4"></circle>
                <circle id="椭圆形备份-17" fill="#1764AB" cx="108" cy="56" r="4"></circle>
                <circle id="椭圆形备份-108" fill="#1764AB" cx="108" cy="17" r="4"></circle>
                <circle id="椭圆形备份-70" fill="#1764AB" cx="108" cy="108" r="4"></circle>
                <circle id="椭圆形备份-35" fill="#1764AB" cx="108" cy="82" r="4"></circle>
                <circle id="椭圆形备份-71" fill="#1764AB" cx="108" cy="134" r="4"></circle>
                <circle id="椭圆形备份-4" fill="#1764AB" cx="56" cy="43" r="4"></circle>
                <circle id="椭圆形备份-109" fill="#1764AB" cx="56" cy="4" r="4"></circle>
                <circle id="椭圆形备份-72" fill="#1764AB" cx="56" cy="95" r="4"></circle>
                <circle id="椭圆形备份-36" fill="#1764AB" cx="56" cy="69" r="4"></circle>
                <circle id="椭圆形备份-110" fill="#1764AB" cx="56" cy="30" r="4"></circle>
                <circle id="椭圆形备份-73" fill="#1764AB" cx="56" cy="121" r="4"></circle>
                <circle id="椭圆形备份-18" fill="#1764AB" cx="56" cy="56" r="4"></circle>
                <circle id="椭圆形备份-111" fill="#1764AB" cx="56" cy="17" r="4"></circle>
                <circle id="椭圆形备份-74" fill="#1764AB" cx="56" cy="108" r="4"></circle>
                <circle id="椭圆形备份-37" fill="#1764AB" cx="56" cy="82" r="4"></circle>
                <circle id="椭圆形备份-75" fill="#1764AB" cx="56" cy="134" r="4"></circle>
                <circle id="椭圆形备份-8" fill="#1764AB" cx="95" cy="43" r="4"></circle>
                <circle id="椭圆形备份-112" fill="#1764AB" cx="95" cy="4" r="4"></circle>
                <circle id="椭圆形备份-76" fill="#1764AB" cx="95" cy="95" r="4"></circle>
                <circle id="椭圆形备份-38" fill="#1764AB" cx="95" cy="69" r="4"></circle>
                <circle id="椭圆形备份-113" fill="#1764AB" cx="95" cy="30" r="4"></circle>
                <circle id="椭圆形备份-77" fill="#1764AB" cx="95" cy="121" r="4"></circle>
                <circle id="椭圆形备份-19" fill="#1764AB" cx="95" cy="56" r="4"></circle>
                <circle id="椭圆形备份-114" fill="#1764AB" cx="95" cy="17" r="4"></circle>
                <circle id="椭圆形备份-78" fill="#1764AB" cx="95" cy="108" r="4"></circle>
                <circle id="椭圆形备份-39" fill="#1764AB" cx="95" cy="82" r="4"></circle>
                <circle id="椭圆形备份-79" fill="#1764AB" cx="95" cy="134" r="4"></circle>
                <circle id="椭圆形备份-9" fill="#1764AB" cx="121" cy="43" r="4"></circle>
                <circle id="椭圆形备份-115" fill="#1764AB" cx="121" cy="4" r="4"></circle>
                <circle id="椭圆形备份-80" fill="#1764AB" cx="121" cy="95" r="4"></circle>
                <circle id="椭圆形备份-40" fill="#1764AB" cx="121" cy="69" r="4"></circle>
                <circle id="椭圆形备份-116" fill="#1764AB" cx="121" cy="30" r="4"></circle>
                <circle id="椭圆形备份-81" fill="#1764AB" cx="121" cy="121" r="4"></circle>
                <circle id="椭圆形备份-20" fill="#1764AB" cx="121" cy="56" r="4"></circle>
                <circle id="椭圆形备份-117" fill="#1764AB" cx="121" cy="17" r="4"></circle>
                <circle id="椭圆形备份-82" fill="#1764AB" cx="121" cy="108" r="4"></circle>
                <circle id="椭圆形备份-41" fill="#1764AB" cx="121" cy="82" r="4"></circle>
                <circle id="椭圆形备份-83" fill="#1764AB" cx="121" cy="134" r="4"></circle>
                <circle id="椭圆形备份-10" fill="#1764AB" cx="134" cy="43" r="4"></circle>
                <circle id="椭圆形备份-118" fill="#1764AB" cx="134" cy="4" r="4"></circle>
                <circle id="椭圆形备份-84" fill="#1764AB" cx="134" cy="95" r="4"></circle>
                <circle id="椭圆形备份-42" fill="#1764AB" cx="134" cy="69" r="4"></circle>
                <circle id="椭圆形备份-119" fill="#1764AB" cx="134" cy="30" r="4"></circle>
                <circle id="椭圆形备份-85" fill="#1764AB" cx="134" cy="121" r="4"></circle>
                <circle id="椭圆形备份-21" fill="#1764AB" cx="134" cy="56" r="4"></circle>
                <circle id="椭圆形备份-120" fill="#1764AB" cx="134" cy="17" r="4"></circle>
                <circle id="椭圆形备份-86" fill="#1764AB" cx="134" cy="108" r="4"></circle>
                <circle id="椭圆形备份-43" fill="#1764AB" cx="134" cy="82" r="4"></circle>
                <circle id="椭圆形备份-87" fill="#1764AB" cx="134" cy="134" r="4"></circle>
            </g>
        </g>
        <g filter="url(#filter-2)" id="编组备份-2">
            <g transform="translate(378.000000, 75.000000)">
                <circle id="椭圆形" fill="#1764AB" cx="4" cy="43" r="4"></circle>
                <circle id="椭圆形备份-88" fill="#1764AB" cx="4" cy="4" r="4"></circle>
                <circle id="椭圆形备份-44" fill="#1764AB" cx="4" cy="95" r="4"></circle>
                <circle id="椭圆形备份-22" fill="#1764AB" cx="4" cy="69" r="4"></circle>
                <circle id="椭圆形备份-89" fill="#1764AB" cx="4" cy="30" r="4"></circle>
                <circle id="椭圆形备份-45" fill="#1764AB" cx="4" cy="121" r="4"></circle>
                <circle id="椭圆形备份-11" fill="#1764AB" cx="4" cy="56" r="4"></circle>
                <circle id="椭圆形备份-90" fill="#1764AB" cx="4" cy="17" r="4"></circle>
                <circle id="椭圆形备份-46" fill="#1764AB" cx="4" cy="108" r="4"></circle>
                <circle id="椭圆形备份-23" fill="#1764AB" cx="4" cy="82" r="4"></circle>
                <circle id="椭圆形备份-47" fill="#1764AB" cx="4" cy="134" r="4"></circle>
                <circle id="椭圆形备份" fill="#1764AB" cx="17" cy="43" r="4"></circle>
                <circle id="椭圆形备份-91" fill="#1764AB" cx="17" cy="4" r="4"></circle>
                <circle id="椭圆形备份-48" fill="#1764AB" cx="17" cy="95" r="4"></circle>
                <circle id="椭圆形备份-24" fill="#1764AB" cx="17" cy="69" r="4"></circle>
                <circle id="椭圆形备份-92" fill="#1764AB" cx="17" cy="30" r="4"></circle>
                <circle id="椭圆形备份-49" fill="#1764AB" cx="17" cy="121" r="4"></circle>
                <circle id="椭圆形备份-12" fill="#1764AB" cx="17" cy="56" r="4"></circle>
                <circle id="椭圆形备份-93" fill="#1764AB" cx="17" cy="17" r="4"></circle>
                <circle id="椭圆形备份-50" fill="#1764AB" cx="17" cy="108" r="4"></circle>
                <circle id="椭圆形备份-25" fill="#1764AB" cx="17" cy="82" r="4"></circle>
                <circle id="椭圆形备份-51" fill="#1764AB" cx="17" cy="134" r="4"></circle>
                <circle id="椭圆形备份-5" fill="#1764AB" cx="69" cy="43" r="4"></circle>
                <circle id="椭圆形备份-94" fill="#1764AB" cx="69" cy="4" r="4"></circle>
                <circle id="椭圆形备份-52" fill="#1764AB" cx="69" cy="95" r="4"></circle>
                <circle id="椭圆形备份-26" fill="#1764AB" cx="69" cy="69" r="4"></circle>
                <circle id="椭圆形备份-95" fill="#1764AB" cx="69" cy="30" r="4"></circle>
                <circle id="椭圆形备份-53" fill="#1764AB" cx="69" cy="121" r="4"></circle>
                <circle id="椭圆形备份-13" fill="#1764AB" cx="69" cy="56" r="4"></circle>
                <circle id="椭圆形备份-96" fill="#1764AB" cx="69" cy="17" r="4"></circle>
                <circle id="椭圆形备份-54" fill="#1764AB" cx="69" cy="108" r="4"></circle>
                <circle id="椭圆形备份-27" fill="#1764AB" cx="69" cy="82" r="4"></circle>
                <circle id="椭圆形备份-55" fill="#1764AB" cx="69" cy="134" r="4"></circle>
                <circle id="椭圆形备份-2" fill="#1764AB" cx="30" cy="43" r="4"></circle>
                <circle id="椭圆形备份-97" fill="#1764AB" cx="30" cy="4" r="4"></circle>
                <circle id="椭圆形备份-56" fill="#1764AB" cx="30" cy="95" r="4"></circle>
                <circle id="椭圆形备份-28" fill="#1764AB" cx="30" cy="69" r="4"></circle>
                <circle id="椭圆形备份-98" fill="#1764AB" cx="30" cy="30" r="4"></circle>
                <circle id="椭圆形备份-57" fill="#1764AB" cx="30" cy="121" r="4"></circle>
                <circle id="椭圆形备份-14" fill="#1764AB" cx="30" cy="56" r="4"></circle>
                <circle id="椭圆形备份-99" fill="#1764AB" cx="30" cy="17" r="4"></circle>
                <circle id="椭圆形备份-58" fill="#1764AB" cx="30" cy="108" r="4"></circle>
                <circle id="椭圆形备份-29" fill="#1764AB" cx="30" cy="82" r="4"></circle>
                <circle id="椭圆形备份-59" fill="#1764AB" cx="30" cy="134" r="4"></circle>
                <circle id="椭圆形备份-6" fill="#1764AB" cx="82" cy="43" r="4"></circle>
                <circle id="椭圆形备份-100" fill="#1764AB" cx="82" cy="4" r="4"></circle>
                <circle id="椭圆形备份-60" fill="#1764AB" cx="82" cy="95" r="4"></circle>
                <circle id="椭圆形备份-30" fill="#1764AB" cx="82" cy="69" r="4"></circle>
                <circle id="椭圆形备份-101" fill="#1764AB" cx="82" cy="30" r="4"></circle>
                <circle id="椭圆形备份-61" fill="#1764AB" cx="82" cy="121" r="4"></circle>
                <circle id="椭圆形备份-15" fill="#1764AB" cx="82" cy="56" r="4"></circle>
                <circle id="椭圆形备份-102" fill="#1764AB" cx="82" cy="17" r="4"></circle>
                <circle id="椭圆形备份-62" fill="#1764AB" cx="82" cy="108" r="4"></circle>
                <circle id="椭圆形备份-31" fill="#1764AB" cx="82" cy="82" r="4"></circle>
                <circle id="椭圆形备份-63" fill="#1764AB" cx="82" cy="134" r="4"></circle>
                <circle id="椭圆形备份-3" fill="#1764AB" cx="43" cy="43" r="4"></circle>
                <circle id="椭圆形备份-103" fill="#1764AB" cx="43" cy="4" r="4"></circle>
                <circle id="椭圆形备份-64" fill="#1764AB" cx="43" cy="95" r="4"></circle>
                <circle id="椭圆形备份-32" fill="#1764AB" cx="43" cy="69" r="4"></circle>
                <circle id="椭圆形备份-104" fill="#1764AB" cx="43" cy="30" r="4"></circle>
                <circle id="椭圆形备份-65" fill="#1764AB" cx="43" cy="121" r="4"></circle>
                <circle id="椭圆形备份-16" fill="#1764AB" cx="43" cy="56" r="4"></circle>
                <circle id="椭圆形备份-105" fill="#1764AB" cx="43" cy="17" r="4"></circle>
                <circle id="椭圆形备份-66" fill="#1764AB" cx="43" cy="108" r="4"></circle>
                <circle id="椭圆形备份-33" fill="#1764AB" cx="43" cy="82" r="4"></circle>
                <circle id="椭圆形备份-67" fill="#1764AB" cx="43" cy="134" r="4"></circle>
                <circle id="椭圆形备份-7" fill="#1764AB" cx="108" cy="43" r="4"></circle>
                <circle id="椭圆形备份-106" fill="#1764AB" cx="108" cy="4" r="4"></circle>
                <circle id="椭圆形备份-68" fill="#1764AB" cx="108" cy="95" r="4"></circle>
                <circle id="椭圆形备份-34" fill="#1764AB" cx="108" cy="69" r="4"></circle>
                <circle id="椭圆形备份-107" fill="#1764AB" cx="108" cy="30" r="4"></circle>
                <circle id="椭圆形备份-69" fill="#1764AB" cx="108" cy="121" r="4"></circle>
                <circle id="椭圆形备份-17" fill="#1764AB" cx="108" cy="56" r="4"></circle>
                <circle id="椭圆形备份-108" fill="#1764AB" cx="108" cy="17" r="4"></circle>
                <circle id="椭圆形备份-70" fill="#1764AB" cx="108" cy="108" r="4"></circle>
                <circle id="椭圆形备份-35" fill="#1764AB" cx="108" cy="82" r="4"></circle>
                <circle id="椭圆形备份-71" fill="#1764AB" cx="108" cy="134" r="4"></circle>
                <circle id="椭圆形备份-4" fill="#1764AB" cx="56" cy="43" r="4"></circle>
                <circle id="椭圆形备份-109" fill="#1764AB" cx="56" cy="4" r="4"></circle>
                <circle id="椭圆形备份-72" fill="#1764AB" cx="56" cy="95" r="4"></circle>
                <circle id="椭圆形备份-36" fill="#1764AB" cx="56" cy="69" r="4"></circle>
                <circle id="椭圆形备份-110" fill="#1764AB" cx="56" cy="30" r="4"></circle>
                <circle id="椭圆形备份-73" fill="#1764AB" cx="56" cy="121" r="4"></circle>
                <circle id="椭圆形备份-18" fill="#1764AB" cx="56" cy="56" r="4"></circle>
                <circle id="椭圆形备份-111" fill="#1764AB" cx="56" cy="17" r="4"></circle>
                <circle id="椭圆形备份-74" fill="#1764AB" cx="56" cy="108" r="4"></circle>
                <circle id="椭圆形备份-37" fill="#1764AB" cx="56" cy="82" r="4"></circle>
                <circle id="椭圆形备份-75" fill="#1764AB" cx="56" cy="134" r="4"></circle>
                <circle id="椭圆形备份-8" fill="#1764AB" cx="95" cy="43" r="4"></circle>
                <circle id="椭圆形备份-112" fill="#1764AB" cx="95" cy="4" r="4"></circle>
                <circle id="椭圆形备份-76" fill="#1764AB" cx="95" cy="95" r="4"></circle>
                <circle id="椭圆形备份-38" fill="#1764AB" cx="95" cy="69" r="4"></circle>
                <circle id="椭圆形备份-113" fill="#1764AB" cx="95" cy="30" r="4"></circle>
                <circle id="椭圆形备份-77" fill="#1764AB" cx="95" cy="121" r="4"></circle>
                <circle id="椭圆形备份-19" fill="#1764AB" cx="95" cy="56" r="4"></circle>
                <circle id="椭圆形备份-114" fill="#1764AB" cx="95" cy="17" r="4"></circle>
                <circle id="椭圆形备份-78" fill="#1764AB" cx="95" cy="108" r="4"></circle>
                <circle id="椭圆形备份-39" fill="#1764AB" cx="95" cy="82" r="4"></circle>
                <circle id="椭圆形备份-79" fill="#1764AB" cx="95" cy="134" r="4"></circle>
                <circle id="椭圆形备份-9" fill="#1764AB" cx="121" cy="43" r="4"></circle>
                <circle id="椭圆形备份-115" fill="#1764AB" cx="121" cy="4" r="4"></circle>
                <circle id="椭圆形备份-80" fill="#1764AB" cx="121" cy="95" r="4"></circle>
                <circle id="椭圆形备份-40" fill="#1764AB" cx="121" cy="69" r="4"></circle>
                <circle id="椭圆形备份-116" fill="#1764AB" cx="121" cy="30" r="4"></circle>
                <circle id="椭圆形备份-81" fill="#1764AB" cx="121" cy="121" r="4"></circle>
                <circle id="椭圆形备份-20" fill="#1764AB" cx="121" cy="56" r="4"></circle>
                <circle id="椭圆形备份-117" fill="#1764AB" cx="121" cy="17" r="4"></circle>
                <circle id="椭圆形备份-82" fill="#1764AB" cx="121" cy="108" r="4"></circle>
                <circle id="椭圆形备份-41" fill="#1764AB" cx="121" cy="82" r="4"></circle>
                <circle id="椭圆形备份-83" fill="#1764AB" cx="121" cy="134" r="4"></circle>
                <circle id="椭圆形备份-10" fill="#1764AB" cx="134" cy="43" r="4"></circle>
                <circle id="椭圆形备份-118" fill="#1764AB" cx="134" cy="4" r="4"></circle>
                <circle id="椭圆形备份-84" fill="#1764AB" cx="134" cy="95" r="4"></circle>
                <circle id="椭圆形备份-42" fill="#1764AB" cx="134" cy="69" r="4"></circle>
                <circle id="椭圆形备份-119" fill="#1764AB" cx="134" cy="30" r="4"></circle>
                <circle id="椭圆形备份-85" fill="#1764AB" cx="134" cy="121" r="4"></circle>
                <circle id="椭圆形备份-21" fill="#1764AB" cx="134" cy="56" r="4"></circle>
                <circle id="椭圆形备份-120" fill="#1764AB" cx="134" cy="17" r="4"></circle>
                <circle id="椭圆形备份-86" fill="#1764AB" cx="134" cy="108" r="4"></circle>
                <circle id="椭圆形备份-43" fill="#1764AB" cx="134" cy="82" r="4"></circle>
                <circle id="椭圆形备份-87" fill="#1764AB" cx="134" cy="134" r="4"></circle>
            </g>
        </g>
        <circle id="椭圆形备份-122" fill="#DCEDFF" cx="875" cy="865" r="84"></circle>
    </g>
</svg>