<svg width="11" height="14" xmlns="http://www.w3.org/2000/svg"><defs><linearGradient x1="50%" y1="100%" x2="50%" y2="0%" id="a"><stop stop-color="#FF442C" offset="0%"/><stop stop-color="#FF9C15" offset="100%"/></linearGradient></defs><path d="M5 12.31a5 5 0 0 1-5-5c0-1.143.514-2.551 1.538-3.078 0 0 .183 1.898 1.154 2.692C2.808 5.65 1.911 1.455 5.77 0c0 2.343-.05 3.97 1.154 5.385-.11-.865.199-2.23 1.886-2.71C8.795 4.909 10 5.667 10 7.309a5 5 0 0 1-5 5z" transform="translate(.223 .845)" fill="url(#a)" fill-rule="evenodd"/></svg>